<svg id="svg" version="1.1" xmlns="http://www.w3.org/2000/svg" xmlns:xlink="http://www.w3.org/1999/xlink" width="400" height="106.61157024793388" viewBox="0, 0, 400,106.61157024793388"><g id="svgg"><path id="path0" d="M37.121 0.403 C 36.981 0.543,36.384 0.675,35.651 0.729 C 33.415 0.893,32.646 1.026,32.554 1.267 C 32.494 1.423,32.194 1.500,31.649 1.500 C 31.200 1.500,30.833 1.575,30.833 1.667 C 30.833 1.758,30.568 1.833,30.245 1.833 C 29.875 1.833,29.620 1.926,29.560 2.083 C 29.502 2.236,29.249 2.333,28.909 2.333 C 28.603 2.333,28.307 2.408,28.250 2.500 C 28.193 2.592,27.926 2.667,27.657 2.667 C 27.332 2.667,27.167 2.751,27.167 2.917 C 27.167 3.093,26.989 3.167,26.566 3.167 C 26.138 3.167,25.989 3.230,26.048 3.385 C 26.109 3.543,25.999 3.584,25.651 3.533 C 25.316 3.484,25.139 3.544,25.067 3.731 C 25.011 3.879,24.785 4.000,24.566 4.000 C 24.346 4.000,24.167 4.075,24.167 4.167 C 24.167 4.258,24.014 4.333,23.828 4.333 C 23.642 4.333,23.446 4.446,23.394 4.583 C 23.341 4.721,23.118 4.833,22.899 4.833 C 22.679 4.833,22.500 4.908,22.500 5.000 C 22.500 5.092,22.405 5.167,22.290 5.167 C 22.174 5.167,21.878 5.354,21.631 5.583 C 21.383 5.813,21.028 6.000,20.841 6.000 C 20.653 6.000,20.499 6.094,20.497 6.208 C 20.495 6.323,20.120 6.593,19.664 6.809 C 19.207 7.025,18.833 7.307,18.833 7.434 C 18.833 7.562,18.702 7.669,18.542 7.672 C 18.181 7.679,17.667 8.054,17.667 8.310 C 17.667 8.415,17.586 8.500,17.488 8.500 C 17.390 8.500,17.205 8.594,17.077 8.708 C 16.563 9.169,16.342 9.333,16.235 9.333 C 16.173 9.333,15.875 9.596,15.573 9.917 C 15.270 10.238,14.942 10.500,14.845 10.500 C 14.747 10.500,14.667 10.580,14.667 10.679 C 14.667 10.909,14.243 11.333,14.012 11.333 C 13.914 11.333,13.833 11.414,13.833 11.512 C 13.833 11.743,13.409 12.167,13.179 12.167 C 13.080 12.167,13.000 12.237,13.000 12.324 C 13.000 12.410,12.627 12.869,12.171 13.345 C 11.715 13.820,11.247 14.425,11.131 14.688 C 11.014 14.951,10.857 15.167,10.781 15.167 C 10.621 15.167,10.167 15.594,10.167 15.745 C 10.167 15.843,9.994 16.072,9.542 16.577 C 9.427 16.705,9.333 16.882,9.333 16.970 C 9.333 17.059,9.221 17.174,9.083 17.227 C 8.946 17.280,8.833 17.441,8.833 17.585 C 8.833 17.729,8.683 18.008,8.500 18.205 C 8.317 18.402,8.167 18.699,8.167 18.865 C 8.167 19.031,8.054 19.167,7.917 19.167 C 7.779 19.167,7.667 19.279,7.667 19.417 C 7.667 19.554,7.592 19.667,7.500 19.667 C 7.408 19.667,7.333 19.854,7.333 20.083 C 7.333 20.343,7.239 20.500,7.083 20.500 C 6.928 20.500,6.833 20.657,6.833 20.917 C 6.833 21.146,6.758 21.333,6.667 21.333 C 6.575 21.333,6.500 21.521,6.500 21.750 C 6.500 22.009,6.406 22.167,6.250 22.167 C 6.094 22.167,6.000 22.324,6.000 22.583 C 6.000 22.813,5.925 23.000,5.833 23.000 C 5.742 23.000,5.667 23.188,5.667 23.417 C 5.667 23.676,5.572 23.833,5.417 23.833 C 5.261 23.833,5.167 23.991,5.167 24.250 C 5.167 24.479,5.092 24.667,5.000 24.667 C 4.908 24.667,4.833 24.846,4.833 25.066 C 4.833 25.285,4.721 25.508,4.583 25.560 C 4.437 25.616,4.333 25.866,4.333 26.161 C 4.333 26.439,4.258 26.667,4.167 26.667 C 4.075 26.667,4.000 26.929,4.000 27.250 C 4.000 27.657,3.925 27.833,3.750 27.833 C 3.569 27.833,3.500 28.019,3.500 28.500 C 3.500 28.867,3.425 29.167,3.333 29.167 C 3.242 29.167,3.167 29.421,3.167 29.732 C 3.167 30.097,3.072 30.334,2.900 30.400 C 2.698 30.478,2.647 30.680,2.692 31.237 C 2.726 31.667,2.681 31.961,2.583 31.944 C 2.492 31.929,2.393 32.291,2.364 32.749 C 2.332 33.254,2.217 33.635,2.073 33.716 C 1.911 33.807,1.833 34.141,1.833 34.748 C 1.833 35.243,1.758 35.693,1.667 35.750 C 1.575 35.807,1.500 36.379,1.500 37.022 C 1.500 37.857,1.426 38.264,1.241 38.450 C 1.028 38.662,0.991 39.078,1.032 40.756 C 1.060 41.881,1.029 42.769,0.963 42.728 C 0.703 42.566,0.657 43.590,0.734 47.833 C 0.836 53.431,1.024 56.476,1.277 56.632 C 1.384 56.698,1.512 57.314,1.563 58.001 C 1.738 60.364,1.864 61.151,2.098 61.346 C 2.241 61.464,2.333 61.856,2.333 62.344 C 2.333 62.786,2.408 63.193,2.500 63.250 C 2.592 63.307,2.667 63.613,2.667 63.932 C 2.667 64.292,2.761 64.547,2.917 64.606 C 3.071 64.666,3.167 64.919,3.167 65.268 C 3.167 65.579,3.242 65.833,3.333 65.833 C 3.425 65.833,3.500 66.096,3.500 66.417 C 3.500 66.824,3.575 67.000,3.750 67.000 C 3.931 67.000,4.000 67.185,4.000 67.667 C 4.000 68.033,4.075 68.333,4.167 68.333 C 4.258 68.333,4.333 68.513,4.333 68.732 C 4.333 68.952,4.446 69.174,4.583 69.227 C 4.729 69.283,4.833 69.533,4.833 69.828 C 4.833 70.106,4.908 70.333,5.000 70.333 C 5.092 70.333,5.167 70.521,5.167 70.750 C 5.167 71.009,5.261 71.167,5.417 71.167 C 5.572 71.167,5.667 71.324,5.667 71.583 C 5.667 71.813,5.742 72.000,5.833 72.000 C 5.925 72.000,6.000 72.188,6.000 72.417 C 6.000 72.676,6.094 72.833,6.250 72.833 C 6.388 72.833,6.500 72.931,6.500 73.050 C 6.500 73.433,6.910 74.164,7.125 74.165 C 7.240 74.166,7.333 74.354,7.333 74.583 C 7.333 74.813,7.408 75.000,7.500 75.000 C 7.592 75.000,7.667 75.115,7.667 75.255 C 7.667 75.396,7.779 75.554,7.917 75.606 C 8.054 75.659,8.167 75.807,8.167 75.934 C 8.167 76.062,8.242 76.167,8.333 76.167 C 8.425 76.167,8.500 76.268,8.500 76.392 C 8.500 76.516,8.687 76.820,8.917 77.068 C 9.146 77.315,9.333 77.556,9.333 77.604 C 9.333 77.651,9.427 77.795,9.542 77.923 C 10.003 78.437,10.167 78.658,10.167 78.765 C 10.167 78.827,10.429 79.125,10.750 79.427 C 11.071 79.730,11.333 80.058,11.333 80.155 C 11.333 80.253,11.414 80.333,11.512 80.333 C 11.743 80.333,12.167 80.757,12.167 80.988 C 12.167 81.086,12.247 81.167,12.345 81.167 C 12.576 81.167,13.000 81.591,13.000 81.821 C 13.000 81.920,13.100 82.000,13.223 82.000 C 13.346 82.000,13.532 82.188,13.636 82.417 C 13.741 82.646,13.908 82.833,14.008 82.833 C 14.242 82.833,14.667 83.256,14.667 83.488 C 14.667 83.586,14.763 83.667,14.880 83.667 C 14.997 83.667,15.201 83.817,15.333 84.000 C 15.465 84.183,15.670 84.333,15.787 84.333 C 15.904 84.333,16.000 84.414,16.000 84.512 C 16.000 84.772,16.630 85.294,17.333 85.617 C 17.685 85.778,18.000 86.111,18.000 86.321 C 18.000 86.420,18.170 86.500,18.377 86.500 C 18.585 86.500,18.895 86.687,19.067 86.917 C 19.239 87.146,19.520 87.333,19.690 87.333 C 19.861 87.333,20.000 87.408,20.000 87.500 C 20.000 87.592,20.104 87.667,20.232 87.667 C 20.360 87.667,20.508 87.779,20.560 87.917 C 20.613 88.054,20.809 88.167,20.995 88.167 C 21.181 88.167,21.333 88.242,21.333 88.333 C 21.333 88.425,21.521 88.500,21.750 88.500 C 22.009 88.500,22.167 88.594,22.167 88.750 C 22.167 88.906,22.324 89.000,22.583 89.000 C 22.813 89.000,23.000 89.075,23.000 89.167 C 23.000 89.258,23.188 89.333,23.417 89.333 C 23.676 89.333,23.833 89.428,23.833 89.583 C 23.833 89.739,23.991 89.833,24.250 89.833 C 24.479 89.833,24.667 89.908,24.667 90.000 C 24.667 90.092,24.846 90.167,25.066 90.167 C 25.285 90.167,25.508 90.279,25.560 90.417 C 25.616 90.563,25.866 90.667,26.161 90.667 C 26.439 90.667,26.667 90.742,26.667 90.833 C 26.667 90.925,26.882 91.000,27.146 91.000 C 27.410 91.000,27.719 91.112,27.833 91.250 C 27.947 91.387,28.294 91.500,28.604 91.500 C 28.913 91.500,29.167 91.575,29.167 91.667 C 29.167 91.758,29.435 91.833,29.762 91.833 C 30.089 91.833,30.470 91.946,30.607 92.083 C 30.762 92.238,31.171 92.333,31.679 92.333 C 32.130 92.333,32.500 92.408,32.500 92.500 C 32.500 92.596,33.022 92.667,33.732 92.667 C 34.674 92.667,34.987 92.726,35.060 92.917 C 35.140 93.125,35.615 93.167,37.902 93.167 C 39.552 93.167,40.688 93.233,40.750 93.333 C 40.807 93.425,41.144 93.500,41.500 93.500 C 41.856 93.500,42.193 93.425,42.250 93.333 C 42.312 93.234,43.408 93.167,44.978 93.167 C 47.028 93.167,47.674 93.113,47.926 92.922 C 48.121 92.775,48.631 92.675,49.208 92.672 C 49.735 92.669,50.167 92.592,50.167 92.500 C 50.167 92.408,50.532 92.333,50.980 92.333 C 51.499 92.333,51.867 92.243,52.000 92.083 C 52.119 91.940,52.483 91.833,52.854 91.833 C 53.209 91.833,53.500 91.758,53.500 91.667 C 53.500 91.575,53.716 91.500,53.980 91.500 C 54.243 91.500,54.553 91.387,54.667 91.250 C 54.781 91.112,55.048 91.000,55.261 91.000 C 55.473 91.000,55.693 90.925,55.750 90.833 C 55.807 90.742,55.993 90.667,56.165 90.667 C 56.336 90.667,56.589 90.554,56.726 90.417 C 56.864 90.279,57.132 90.167,57.321 90.167 C 57.511 90.167,57.667 90.092,57.667 90.000 C 57.667 89.908,57.819 89.833,58.005 89.833 C 58.191 89.833,58.387 89.721,58.440 89.583 C 58.492 89.446,58.659 89.333,58.809 89.333 C 58.960 89.333,59.301 89.146,59.568 88.916 C 59.834 88.687,60.153 88.500,60.276 88.500 C 60.399 88.500,60.500 88.425,60.500 88.333 C 60.500 88.242,60.604 88.167,60.732 88.167 C 60.860 88.167,61.008 88.054,61.060 87.917 C 61.113 87.779,61.276 87.667,61.423 87.667 C 61.727 87.667,62.167 87.279,62.167 87.012 C 62.167 86.914,62.247 86.833,62.345 86.833 C 62.443 86.833,62.628 86.740,62.756 86.625 C 63.248 86.184,63.489 86.000,63.576 86.000 C 63.739 86.000,65.000 84.671,65.000 84.500 C 65.000 84.408,65.080 84.333,65.177 84.333 C 65.387 84.333,68.333 81.396,68.333 81.186 C 68.333 81.106,68.446 80.947,68.583 80.833 C 68.799 80.655,68.833 80.720,68.833 81.303 C 68.833 81.676,68.908 82.027,69.000 82.083 C 69.092 82.140,69.167 82.655,69.167 83.228 C 69.167 83.886,69.257 84.389,69.411 84.593 C 69.567 84.799,69.658 85.314,69.661 86.008 C 69.664 86.609,69.734 87.171,69.816 87.258 C 69.898 87.345,69.996 87.937,70.034 88.573 C 70.075 89.263,70.183 89.755,70.302 89.795 C 70.411 89.831,70.500 90.117,70.500 90.431 L 70.500 91.000 76.917 91.000 L 83.333 91.000 83.333 67.083 L 83.333 43.167 64.750 43.167 L 46.167 43.167 46.167 51.000 L 46.167 58.833 56.250 58.833 C 65.102 58.833,66.333 58.864,66.333 59.083 C 66.333 59.221,66.258 59.333,66.167 59.333 C 66.075 59.333,66.000 59.673,66.000 60.089 C 66.000 60.606,65.921 60.874,65.750 60.940 C 65.597 60.998,65.500 61.251,65.500 61.591 C 65.500 61.897,65.425 62.193,65.333 62.250 C 65.242 62.307,65.167 62.566,65.167 62.825 C 65.167 63.091,65.058 63.340,64.917 63.394 C 64.772 63.449,64.667 63.698,64.667 63.985 C 64.667 64.257,64.592 64.527,64.500 64.583 C 64.408 64.640,64.333 64.869,64.333 65.093 C 64.333 65.344,64.237 65.500,64.083 65.500 C 63.943 65.500,63.833 65.649,63.833 65.841 C 63.833 66.028,63.646 66.369,63.417 66.598 C 63.188 66.828,63.000 67.124,63.000 67.258 C 63.000 67.391,62.925 67.500,62.833 67.500 C 62.742 67.500,62.667 67.612,62.667 67.750 C 62.667 67.887,62.597 68.000,62.511 68.000 C 62.426 68.000,62.303 68.165,62.239 68.367 C 62.103 68.796,61.766 69.167,61.512 69.167 C 61.414 69.167,61.333 69.245,61.333 69.341 C 61.333 69.436,61.146 69.717,60.917 69.964 C 60.688 70.211,60.500 70.476,60.500 70.553 C 60.500 70.721,59.151 72.000,58.973 72.000 C 58.905 72.000,58.661 72.188,58.432 72.417 C 58.203 72.646,57.937 72.833,57.841 72.833 C 57.745 72.833,57.667 72.946,57.667 73.083 C 57.667 73.221,57.535 73.336,57.375 73.339 C 57.015 73.345,56.500 73.721,56.500 73.977 C 56.500 74.081,56.313 74.167,56.083 74.167 C 55.854 74.167,55.667 74.242,55.667 74.333 C 55.667 74.425,55.514 74.500,55.328 74.500 C 55.142 74.500,54.946 74.613,54.894 74.750 C 54.841 74.888,54.618 75.000,54.399 75.000 C 54.179 75.000,54.000 75.075,54.000 75.167 C 54.000 75.258,53.813 75.333,53.583 75.333 C 53.324 75.333,53.167 75.428,53.167 75.583 C 53.167 75.764,52.981 75.833,52.500 75.833 C 52.133 75.833,51.833 75.908,51.833 76.000 C 51.833 76.092,51.576 76.167,51.262 76.167 C 50.948 76.167,50.578 76.279,50.440 76.417 C 50.279 76.578,49.866 76.667,49.272 76.667 C 48.766 76.667,48.307 76.742,48.250 76.833 C 48.110 77.060,40.667 77.060,40.667 76.833 C 40.667 76.741,40.222 76.667,39.667 76.667 C 38.889 76.667,38.667 76.611,38.667 76.417 C 38.667 76.236,38.481 76.167,38.000 76.167 C 37.633 76.167,37.333 76.092,37.333 76.000 C 37.333 75.908,37.079 75.833,36.768 75.833 C 36.419 75.833,36.166 75.738,36.106 75.583 C 36.054 75.446,35.825 75.333,35.598 75.333 C 35.372 75.333,35.140 75.258,35.083 75.167 C 35.027 75.075,34.805 75.000,34.591 75.000 C 34.377 75.000,34.159 74.887,34.106 74.750 C 34.054 74.612,33.858 74.500,33.672 74.500 C 33.486 74.500,33.333 74.443,33.333 74.373 C 33.333 74.246,32.839 73.944,32.292 73.738 C 32.131 73.677,32.000 73.562,32.000 73.481 C 32.000 73.400,31.813 73.333,31.583 73.333 C 31.354 73.333,31.167 73.253,31.167 73.155 C 31.167 72.896,30.546 72.380,29.837 72.050 C 29.702 71.987,29.278 71.613,28.894 71.218 C 28.510 70.823,28.149 70.500,28.092 70.500 C 27.938 70.500,26.667 69.137,26.667 68.973 C 26.667 68.896,26.554 68.833,26.417 68.833 C 26.279 68.833,26.167 68.753,26.167 68.655 C 26.167 68.424,25.743 68.000,25.512 68.000 C 25.414 68.000,25.333 67.886,25.333 67.748 C 25.333 67.475,25.036 66.894,24.721 66.549 C 24.613 66.431,24.323 65.920,24.075 65.414 C 23.827 64.908,23.559 64.453,23.479 64.404 C 23.399 64.354,23.333 64.135,23.333 63.917 C 23.333 63.698,23.258 63.473,23.167 63.417 C 23.075 63.360,23.000 63.166,23.000 62.985 C 23.000 62.804,22.887 62.613,22.750 62.560 C 22.596 62.501,22.500 62.248,22.500 61.899 C 22.500 61.588,22.425 61.333,22.333 61.333 C 22.242 61.333,22.167 61.080,22.167 60.770 C 22.167 60.461,22.054 60.114,21.917 60.000 C 21.765 59.874,21.667 59.509,21.667 59.073 C 21.667 58.677,21.592 58.307,21.500 58.250 C 21.408 58.193,21.333 57.699,21.333 57.152 C 21.333 56.421,21.267 56.131,21.083 56.060 C 20.883 55.984,20.833 55.619,20.833 54.242 C 20.833 53.274,20.760 52.475,20.667 52.417 C 20.440 52.276,20.440 43.057,20.667 42.917 C 20.761 42.858,20.833 42.024,20.833 40.985 C 20.833 39.513,20.882 39.137,21.083 39.060 C 21.269 38.989,21.333 38.692,21.333 37.899 C 21.333 37.300,21.406 36.833,21.500 36.833 C 21.592 36.833,21.667 36.395,21.667 35.851 C 21.667 35.132,21.734 34.843,21.917 34.773 C 22.074 34.713,22.167 34.458,22.167 34.089 C 22.167 33.765,22.242 33.500,22.333 33.500 C 22.425 33.500,22.500 33.247,22.500 32.937 C 22.500 32.627,22.613 32.281,22.750 32.167 C 22.887 32.053,23.000 31.785,23.000 31.573 C 23.000 31.360,23.075 31.140,23.167 31.083 C 23.258 31.027,23.333 30.768,23.333 30.508 C 23.333 30.242,23.442 29.994,23.583 29.940 C 23.721 29.887,23.833 29.696,23.833 29.515 C 23.833 29.334,23.908 29.140,24.000 29.083 C 24.092 29.027,24.167 28.843,24.167 28.675 C 24.167 28.507,24.279 28.326,24.417 28.273 C 24.554 28.220,24.667 28.025,24.667 27.839 C 24.667 27.652,24.742 27.500,24.833 27.500 C 24.925 27.500,25.000 27.387,25.000 27.250 C 25.000 27.113,25.075 27.000,25.167 27.000 C 25.258 27.000,25.333 26.813,25.333 26.583 C 25.333 26.354,25.419 26.167,25.523 26.167 C 25.779 26.167,26.155 25.652,26.161 25.292 C 26.164 25.131,26.279 25.000,26.417 25.000 C 26.554 25.000,26.667 24.920,26.667 24.822 C 26.667 24.724,26.929 24.397,27.250 24.094 C 27.571 23.792,27.833 23.475,27.833 23.391 C 27.833 23.306,28.214 22.903,28.680 22.494 C 29.146 22.085,29.749 21.544,30.019 21.292 C 30.290 21.040,30.552 20.833,30.601 20.833 C 30.760 20.833,31.167 20.363,31.167 20.179 C 31.167 20.080,31.327 20.000,31.523 20.000 C 31.718 20.000,32.052 19.813,32.265 19.583 C 32.477 19.354,32.723 19.167,32.812 19.167 C 33.052 19.167,33.998 18.602,33.999 18.458 C 34.000 18.390,34.188 18.333,34.417 18.333 C 34.646 18.333,34.833 18.258,34.833 18.167 C 34.833 18.075,35.021 18.000,35.250 18.000 C 35.494 18.000,35.667 17.904,35.667 17.769 C 35.667 17.642,35.873 17.496,36.125 17.446 C 37.647 17.140,38.079 17.012,38.134 16.849 C 38.167 16.749,38.521 16.667,38.921 16.667 C 39.320 16.667,39.693 16.592,39.750 16.500 C 39.807 16.408,40.472 16.333,41.228 16.333 C 42.179 16.333,42.703 16.258,42.926 16.089 C 43.381 15.745,45.549 15.741,45.833 16.083 C 45.992 16.275,46.427 16.333,47.687 16.333 C 48.673 16.333,49.333 16.400,49.333 16.500 C 49.333 16.592,49.700 16.667,50.149 16.667 C 50.720 16.667,50.993 16.742,51.060 16.917 C 51.120 17.074,51.375 17.167,51.745 17.167 C 52.068 17.167,52.333 17.242,52.333 17.333 C 52.333 17.425,52.588 17.500,52.899 17.500 C 53.265 17.500,53.501 17.595,53.567 17.769 C 53.639 17.956,53.816 18.016,54.151 17.967 C 54.499 17.916,54.609 17.957,54.548 18.115 C 54.495 18.254,54.596 18.333,54.827 18.333 C 55.026 18.333,55.435 18.521,55.735 18.750 C 56.036 18.979,56.406 19.167,56.557 19.167 C 56.709 19.167,56.833 19.242,56.833 19.334 C 56.833 19.426,57.133 19.631,57.500 19.790 C 57.867 19.949,58.167 20.141,58.167 20.218 C 58.167 20.375,58.592 20.833,58.738 20.833 C 58.862 20.833,60.167 22.138,60.167 22.262 C 60.167 22.425,60.634 22.833,60.821 22.833 C 60.920 22.833,61.000 22.946,61.000 23.083 C 61.000 23.221,61.075 23.333,61.167 23.333 C 61.258 23.333,61.333 23.442,61.333 23.576 C 61.333 23.709,61.521 24.006,61.750 24.235 C 61.979 24.464,62.167 24.805,62.167 24.992 C 62.167 25.184,62.276 25.333,62.417 25.333 C 62.572 25.333,62.667 25.491,62.667 25.750 C 62.667 25.979,62.742 26.167,62.833 26.167 C 62.925 26.167,63.000 26.354,63.000 26.583 C 63.000 26.843,63.094 27.000,63.250 27.000 C 63.424 27.000,63.500 27.175,63.500 27.573 C 63.500 27.889,63.575 28.193,63.667 28.250 C 63.758 28.307,63.833 28.611,63.833 28.927 C 63.833 29.325,63.910 29.500,64.083 29.500 C 64.239 29.500,64.333 29.657,64.333 29.917 L 64.333 30.333 73.583 30.333 L 82.833 30.333 82.833 28.843 C 82.833 28.024,82.758 27.307,82.667 27.250 C 82.575 27.193,82.500 26.823,82.500 26.427 C 82.500 25.991,82.402 25.626,82.250 25.500 C 82.097 25.373,82.000 25.008,82.000 24.563 C 82.000 24.162,81.925 23.833,81.833 23.833 C 81.742 23.833,81.667 23.568,81.667 23.245 C 81.667 22.875,81.574 22.620,81.417 22.560 C 81.279 22.508,81.167 22.289,81.167 22.075 C 81.167 21.861,81.092 21.640,81.000 21.583 C 80.908 21.527,80.833 21.260,80.833 20.990 C 80.833 20.666,80.749 20.500,80.583 20.500 C 80.428 20.500,80.333 20.343,80.333 20.083 C 80.333 19.854,80.258 19.667,80.167 19.667 C 80.075 19.667,80.000 19.479,80.000 19.250 C 80.000 18.991,79.906 18.833,79.750 18.833 C 79.594 18.833,79.500 18.676,79.500 18.417 C 79.500 18.188,79.425 18.000,79.333 18.000 C 79.242 18.000,79.167 17.848,79.167 17.661 C 79.167 17.475,79.054 17.280,78.917 17.227 C 78.779 17.174,78.667 17.027,78.667 16.899 C 78.667 16.771,78.592 16.667,78.500 16.667 C 78.408 16.667,78.333 16.517,78.333 16.333 C 78.333 16.148,78.222 16.000,78.083 16.000 C 77.946 16.000,77.833 15.902,77.833 15.783 C 77.833 15.465,77.439 14.669,77.280 14.668 C 77.062 14.666,76.721 14.267,76.594 13.867 C 76.530 13.665,76.408 13.500,76.322 13.500 C 76.237 13.500,76.167 13.420,76.167 13.321 C 76.167 13.091,75.743 12.667,75.512 12.667 C 75.414 12.667,75.333 12.588,75.333 12.493 C 75.333 12.309,71.596 8.500,71.415 8.500 C 71.357 8.500,71.205 8.406,71.077 8.292 C 70.526 7.797,70.337 7.667,70.174 7.667 C 70.078 7.667,70.000 7.554,70.000 7.417 C 70.000 7.279,69.887 7.167,69.750 7.167 C 69.612 7.167,69.500 7.092,69.500 7.000 C 69.500 6.908,69.350 6.833,69.167 6.833 C 68.983 6.833,68.833 6.758,68.833 6.667 C 68.833 6.575,68.721 6.500,68.583 6.500 C 68.446 6.500,68.333 6.388,68.333 6.250 C 68.333 6.094,68.176 6.000,67.917 6.000 C 67.688 6.000,67.500 5.925,67.500 5.833 C 67.500 5.742,67.420 5.667,67.321 5.667 C 67.223 5.667,67.038 5.573,66.911 5.458 C 66.317 4.926,66.158 4.833,65.840 4.833 C 65.649 4.833,65.500 4.724,65.500 4.583 C 65.500 4.428,65.343 4.333,65.083 4.333 C 64.854 4.333,64.667 4.258,64.667 4.167 C 64.667 4.075,64.487 4.000,64.268 4.000 C 64.048 4.000,63.826 3.887,63.773 3.750 C 63.720 3.612,63.492 3.500,63.265 3.500 C 63.038 3.500,62.807 3.425,62.750 3.333 C 62.693 3.242,62.472 3.167,62.258 3.167 C 62.044 3.167,61.826 3.054,61.773 2.917 C 61.713 2.760,61.458 2.667,61.089 2.667 C 60.765 2.667,60.500 2.592,60.500 2.500 C 60.500 2.408,60.246 2.333,59.934 2.333 C 59.586 2.333,59.332 2.238,59.273 2.083 C 59.213 1.926,58.958 1.833,58.589 1.833 C 58.265 1.833,58.000 1.758,58.000 1.667 C 58.000 1.575,57.657 1.500,57.238 1.500 C 56.783 1.500,56.375 1.399,56.226 1.250 C 56.072 1.095,55.663 1.000,55.155 1.000 C 54.703 1.000,54.333 0.925,54.333 0.833 C 54.333 0.737,53.788 0.664,53.042 0.661 C 52.171 0.658,51.645 0.576,51.426 0.411 C 50.953 0.053,37.479 0.045,37.121 0.403 M283.333 17.437 C 283.333 30.844,283.305 32.518,283.083 32.333 C 282.946 32.219,282.833 32.050,282.833 31.958 C 282.833 31.865,282.571 31.542,282.250 31.239 C 281.929 30.937,281.667 30.609,281.667 30.511 C 281.667 30.413,281.586 30.333,281.488 30.333 C 281.257 30.333,280.833 29.909,280.833 29.679 C 280.833 29.580,280.753 29.500,280.655 29.500 C 280.424 29.500,280.000 29.076,280.000 28.845 C 280.000 28.747,279.920 28.667,279.822 28.667 C 279.724 28.667,279.397 28.404,279.094 28.083 C 278.792 27.763,278.384 27.500,278.189 27.500 C 277.993 27.500,277.833 27.415,277.833 27.310 C 277.833 27.060,277.322 26.679,276.976 26.672 C 276.826 26.669,276.659 26.554,276.606 26.417 C 276.554 26.279,276.358 26.167,276.172 26.167 C 275.986 26.167,275.833 26.092,275.833 26.000 C 275.833 25.908,275.681 25.833,275.495 25.833 C 275.309 25.833,275.113 25.721,275.060 25.583 C 275.008 25.446,274.785 25.333,274.566 25.333 C 274.346 25.333,274.167 25.258,274.167 25.167 C 274.167 25.075,273.984 25.000,273.760 25.000 C 273.536 25.000,273.307 24.925,273.250 24.833 C 273.193 24.742,272.898 24.667,272.594 24.667 C 272.290 24.667,271.947 24.554,271.833 24.417 C 271.701 24.257,271.332 24.167,270.813 24.167 C 270.366 24.167,270.000 24.092,270.000 24.000 C 270.000 23.893,268.281 23.833,265.177 23.833 C 262.141 23.833,260.315 23.895,260.250 24.000 C 260.193 24.092,259.782 24.167,259.335 24.167 C 258.836 24.167,258.428 24.263,258.274 24.417 C 258.136 24.554,257.756 24.667,257.429 24.667 C 257.101 24.667,256.833 24.742,256.833 24.833 C 256.833 24.925,256.571 25.000,256.250 25.000 C 255.929 25.000,255.667 25.065,255.667 25.145 C 255.667 25.225,255.367 25.339,255.000 25.397 C 254.633 25.456,254.333 25.578,254.333 25.669 C 254.333 25.759,254.146 25.833,253.917 25.833 C 253.688 25.833,253.500 25.900,253.500 25.982 C 253.500 26.064,253.313 26.178,253.083 26.235 C 252.854 26.293,252.667 26.413,252.667 26.503 C 252.667 26.593,252.560 26.667,252.430 26.667 C 252.133 26.667,251.169 27.207,251.168 27.375 C 251.167 27.444,251.054 27.500,250.917 27.500 C 250.779 27.500,250.667 27.575,250.667 27.667 C 250.667 27.758,250.593 27.833,250.502 27.833 C 250.218 27.833,249.013 28.740,249.006 28.958 C 249.003 29.073,248.920 29.167,248.821 29.167 C 248.723 29.167,248.538 29.260,248.411 29.375 C 247.873 29.857,247.673 30.000,247.535 30.000 C 247.455 30.000,247.289 30.187,247.167 30.417 C 247.044 30.646,246.876 30.833,246.793 30.833 C 246.633 30.833,246.167 31.252,246.167 31.396 C 246.167 31.444,245.979 31.685,245.750 31.932 C 245.521 32.180,245.333 32.484,245.333 32.608 C 245.333 32.732,245.221 32.833,245.083 32.833 C 244.946 32.833,244.833 32.907,244.833 32.997 C 244.833 33.087,244.571 33.431,244.250 33.761 C 243.929 34.092,243.667 34.434,243.667 34.522 C 243.667 34.610,243.479 34.856,243.250 35.069 C 243.021 35.281,242.833 35.615,242.833 35.811 C 242.833 36.007,242.735 36.167,242.614 36.167 C 242.494 36.167,242.294 36.426,242.169 36.743 C 242.045 37.060,241.844 37.358,241.722 37.404 C 241.600 37.451,241.500 37.642,241.500 37.828 C 241.500 38.014,241.425 38.167,241.333 38.167 C 241.242 38.167,241.167 38.354,241.167 38.583 C 241.167 38.813,241.106 39.000,241.032 39.000 C 240.828 39.000,240.333 40.219,240.333 40.723 C 240.333 41.006,240.243 41.167,240.083 41.167 C 239.928 41.167,239.833 41.324,239.833 41.583 C 239.833 41.813,239.758 42.000,239.667 42.000 C 239.575 42.000,239.500 42.254,239.500 42.566 C 239.500 42.914,239.404 43.168,239.250 43.227 C 239.093 43.287,239.000 43.542,239.000 43.911 C 239.000 44.235,238.926 44.500,238.835 44.500 C 238.744 44.500,238.681 44.809,238.696 45.186 C 238.715 45.673,238.642 45.917,238.445 46.028 C 238.251 46.136,238.167 46.405,238.167 46.915 C 238.167 47.318,238.092 47.693,238.000 47.750 C 237.908 47.807,237.833 48.332,237.833 48.917 C 237.833 49.502,237.758 50.027,237.667 50.083 C 237.575 50.140,237.500 50.825,237.500 51.605 C 237.500 52.645,237.433 53.091,237.250 53.274 C 236.877 53.647,236.882 65.333,237.255 65.333 C 237.452 65.333,237.500 65.624,237.500 66.833 C 237.500 67.722,237.568 68.333,237.667 68.333 C 237.759 68.333,237.833 68.778,237.833 69.333 C 237.833 69.883,237.899 70.333,237.978 70.333 C 238.058 70.333,238.163 70.687,238.212 71.120 C 238.261 71.552,238.383 71.933,238.484 71.967 C 238.584 72.000,238.667 72.284,238.667 72.597 C 238.667 72.910,238.742 73.167,238.833 73.167 C 238.925 73.167,239.000 73.386,239.000 73.655 C 239.000 73.923,239.112 74.255,239.250 74.393 C 239.387 74.530,239.500 74.798,239.500 74.988 C 239.500 75.178,239.575 75.333,239.667 75.333 C 239.758 75.333,239.833 75.515,239.833 75.738 C 239.833 75.961,239.946 76.255,240.083 76.393 C 240.221 76.530,240.333 76.798,240.333 76.988 C 240.333 77.178,240.400 77.333,240.482 77.333 C 240.564 77.333,240.678 77.521,240.735 77.750 C 240.793 77.979,240.913 78.167,241.003 78.167 C 241.093 78.167,241.167 78.354,241.167 78.583 C 241.167 78.813,241.242 79.000,241.333 79.000 C 241.425 79.000,241.500 79.112,241.500 79.250 C 241.500 79.387,241.612 79.500,241.750 79.500 C 241.891 79.500,242.000 79.649,242.000 79.841 C 242.000 80.028,242.188 80.383,242.417 80.631 C 242.646 80.878,242.833 81.147,242.833 81.229 C 242.833 81.311,243.021 81.552,243.250 81.765 C 243.479 81.977,243.667 82.267,243.667 82.409 C 243.667 82.551,243.742 82.667,243.833 82.667 C 243.925 82.667,244.000 82.779,244.000 82.917 C 244.000 83.054,244.112 83.167,244.250 83.167 C 244.387 83.167,244.500 83.247,244.500 83.345 C 244.500 83.539,244.910 84.000,245.083 84.000 C 245.220 84.000,245.528 84.337,245.776 84.757 C 245.882 84.937,246.057 85.063,246.164 85.038 C 246.271 85.012,246.311 85.068,246.253 85.162 C 246.149 85.330,247.286 86.498,247.554 86.499 C 247.716 86.500,248.167 86.930,248.167 87.083 C 248.167 87.211,248.606 87.667,248.730 87.667 C 248.777 87.667,249.018 87.854,249.266 88.083 C 249.513 88.313,249.776 88.500,249.849 88.500 C 249.923 88.500,250.185 88.688,250.432 88.917 C 250.680 89.146,251.021 89.333,251.191 89.333 C 251.361 89.333,251.500 89.446,251.500 89.583 C 251.500 89.739,251.657 89.833,251.917 89.833 C 252.146 89.833,252.333 89.908,252.333 90.000 C 252.333 90.092,252.446 90.167,252.583 90.167 C 252.721 90.167,252.833 90.227,252.833 90.301 C 252.833 90.488,254.034 91.000,254.473 91.000 C 254.682 91.000,254.833 91.105,254.833 91.250 C 254.833 91.404,254.990 91.500,255.240 91.500 C 255.464 91.500,255.693 91.575,255.750 91.667 C 255.807 91.758,256.055 91.836,256.302 91.839 C 256.548 91.842,256.896 91.954,257.074 92.089 C 257.251 92.223,257.641 92.333,257.939 92.333 C 258.237 92.333,258.527 92.408,258.583 92.500 C 258.640 92.592,259.188 92.669,259.802 92.672 C 260.517 92.675,261.033 92.765,261.240 92.922 C 261.713 93.280,267.620 93.280,268.093 92.922 C 268.307 92.761,268.828 92.675,269.625 92.672 C 270.316 92.669,270.833 92.595,270.833 92.500 C 270.833 92.408,271.173 92.333,271.589 92.333 C 272.106 92.333,272.374 92.255,272.440 92.083 C 272.498 91.930,272.751 91.833,273.091 91.833 C 273.397 91.833,273.693 91.758,273.750 91.667 C 273.807 91.575,273.993 91.500,274.165 91.500 C 274.336 91.500,274.589 91.388,274.726 91.250 C 274.864 91.112,275.132 91.000,275.321 91.000 C 275.511 91.000,275.667 90.925,275.667 90.833 C 275.667 90.742,275.779 90.667,275.917 90.667 C 276.054 90.667,276.167 90.554,276.167 90.417 C 276.167 90.261,276.324 90.167,276.583 90.167 C 276.813 90.167,277.000 90.100,277.000 90.019 C 277.000 89.938,277.131 89.828,277.292 89.774 C 277.903 89.569,278.667 88.961,278.667 88.679 C 278.667 88.580,278.741 88.500,278.832 88.500 C 279.280 88.500,282.000 85.780,282.000 85.332 C 282.000 85.241,282.080 85.167,282.179 85.167 C 282.409 85.167,282.833 84.743,282.833 84.512 C 282.833 84.414,282.903 84.333,282.989 84.333 C 283.074 84.333,283.192 84.183,283.250 84.000 C 283.541 83.082,283.664 83.969,283.705 87.292 L 283.750 90.917 292.375 90.960 L 301.000 91.003 301.000 46.668 L 301.000 2.333 292.167 2.333 L 283.333 2.333 283.333 17.437 M313.833 47.333 C 313.833 86.481,313.862 91.500,314.083 91.500 C 314.221 91.500,314.333 91.576,314.333 91.669 C 314.333 91.781,315.798 91.824,318.625 91.794 L 322.917 91.750 322.959 71.792 L 323.001 51.833 337.251 51.833 C 346.639 51.833,351.500 51.890,351.500 52.000 C 351.500 52.102,352.306 52.167,353.583 52.167 C 355.324 52.167,355.667 52.208,355.667 52.417 C 355.667 52.608,355.879 52.667,356.573 52.667 C 357.072 52.667,357.527 52.742,357.583 52.833 C 357.640 52.925,357.860 53.000,358.073 53.000 C 358.285 53.000,358.553 53.112,358.667 53.250 C 358.781 53.387,359.052 53.500,359.270 53.500 C 359.488 53.500,359.667 53.575,359.667 53.667 C 359.667 53.758,359.813 53.833,359.991 53.833 C 360.170 53.833,360.518 54.021,360.766 54.250 C 361.013 54.479,361.354 54.667,361.524 54.667 C 361.694 54.667,361.833 54.747,361.833 54.845 C 361.833 55.076,362.257 55.500,362.488 55.500 C 362.586 55.500,362.667 55.580,362.667 55.679 C 362.667 55.909,363.091 56.333,363.321 56.333 C 363.420 56.333,363.500 56.446,363.500 56.583 C 363.500 56.721,363.575 56.833,363.667 56.833 C 363.758 56.833,363.833 56.986,363.833 57.172 C 363.833 57.358,363.946 57.554,364.083 57.606 C 364.221 57.659,364.333 57.844,364.333 58.018 C 364.333 58.191,364.408 58.333,364.500 58.333 C 364.592 58.333,364.667 58.486,364.667 58.672 C 364.667 58.858,364.779 59.054,364.917 59.106 C 365.054 59.159,365.167 59.382,365.167 59.601 C 365.167 59.821,365.242 60.000,365.333 60.000 C 365.425 60.000,365.500 60.107,365.500 60.238 C 365.500 60.369,365.594 60.578,365.708 60.703 C 366.034 61.057,366.333 61.637,366.333 61.914 C 366.333 62.053,366.446 62.167,366.583 62.167 C 366.739 62.167,366.833 62.324,366.833 62.583 C 366.833 62.813,366.908 63.000,367.000 63.000 C 367.092 63.000,367.167 63.188,367.167 63.417 C 367.167 63.676,367.261 63.833,367.417 63.833 C 367.572 63.833,367.667 63.991,367.667 64.250 C 367.667 64.479,367.742 64.667,367.833 64.667 C 367.925 64.667,368.000 64.812,368.000 64.990 C 368.000 65.168,368.075 65.360,368.167 65.417 C 368.258 65.473,368.333 65.668,368.333 65.848 C 368.333 66.029,368.446 66.220,368.583 66.273 C 368.721 66.326,368.833 66.511,368.833 66.684 C 368.833 66.858,368.908 67.000,369.000 67.000 C 369.092 67.000,369.167 67.152,369.167 67.339 C 369.167 67.525,369.279 67.720,369.417 67.773 C 369.554 67.826,369.667 68.048,369.667 68.268 C 369.667 68.487,369.742 68.667,369.833 68.667 C 369.925 68.667,370.000 68.819,370.000 69.005 C 370.000 69.191,370.113 69.387,370.250 69.440 C 370.387 69.492,370.500 69.715,370.500 69.934 C 370.500 70.154,370.575 70.333,370.667 70.333 C 370.758 70.333,370.833 70.486,370.833 70.672 C 370.833 70.858,370.946 71.054,371.083 71.106 C 371.221 71.159,371.333 71.382,371.333 71.601 C 371.333 71.821,371.408 72.000,371.500 72.000 C 371.592 72.000,371.667 72.152,371.667 72.339 C 371.667 72.525,371.779 72.720,371.917 72.773 C 372.054 72.826,372.167 73.048,372.167 73.268 C 372.167 73.487,372.242 73.667,372.333 73.667 C 372.425 73.667,372.500 73.819,372.500 74.005 C 372.500 74.191,372.613 74.387,372.750 74.440 C 373.019 74.543,373.103 75.333,372.845 75.333 C 372.759 75.333,372.636 75.502,372.572 75.708 C 372.508 75.915,372.409 76.121,372.353 76.167 C 372.188 76.301,371.832 76.892,371.726 77.208 C 371.672 77.369,371.562 77.500,371.481 77.500 C 371.400 77.500,371.333 77.616,371.333 77.758 C 371.333 77.900,371.146 78.190,370.917 78.402 C 370.688 78.614,370.500 78.907,370.500 79.052 C 370.500 79.197,370.313 79.518,370.083 79.766 C 369.854 80.013,369.667 80.309,369.667 80.423 C 369.667 80.537,369.554 80.674,369.417 80.727 C 369.279 80.780,369.167 80.975,369.167 81.161 C 369.167 81.348,369.092 81.500,369.000 81.500 C 368.908 81.500,368.833 81.612,368.833 81.750 C 368.833 81.887,368.760 82.000,368.670 82.000 C 368.580 82.000,368.459 82.187,368.402 82.417 C 368.344 82.646,368.230 82.833,368.149 82.833 C 368.067 82.833,368.000 82.946,368.000 83.083 C 368.000 83.221,367.925 83.333,367.833 83.333 C 367.742 83.333,367.667 83.483,367.667 83.667 C 367.667 83.852,367.556 84.000,367.417 84.000 C 367.261 84.000,367.167 84.157,367.167 84.417 C 367.167 84.646,367.092 84.833,367.000 84.833 C 366.908 84.833,366.833 84.946,366.833 85.083 C 366.833 85.221,366.721 85.333,366.583 85.333 C 366.435 85.333,366.333 85.486,366.333 85.710 C 366.333 85.918,366.146 86.228,365.917 86.400 C 365.688 86.573,365.500 86.847,365.500 87.009 C 365.500 87.172,365.426 87.331,365.335 87.361 C 365.244 87.392,365.153 87.618,365.133 87.863 C 365.113 88.108,365.032 88.270,364.954 88.221 C 364.787 88.118,364.346 88.652,364.339 88.966 C 364.336 89.085,364.146 89.356,363.917 89.569 C 363.688 89.781,363.500 90.115,363.500 90.311 C 363.500 90.507,363.401 90.667,363.281 90.667 C 363.161 90.667,362.960 90.926,362.836 91.243 C 362.712 91.560,362.510 91.858,362.388 91.904 C 362.266 91.951,362.167 92.142,362.167 92.328 C 362.167 92.514,362.092 92.667,362.000 92.667 C 361.908 92.667,361.833 92.771,361.833 92.899 C 361.833 93.027,361.721 93.174,361.583 93.227 C 361.446 93.280,361.333 93.475,361.333 93.661 C 361.333 93.848,361.258 94.000,361.167 94.000 C 361.075 94.000,361.000 94.095,361.000 94.210 C 361.000 94.326,360.813 94.622,360.583 94.869 C 360.354 95.117,360.167 95.472,360.167 95.659 C 360.167 95.847,360.068 96.000,359.948 96.000 C 359.827 96.000,359.627 96.259,359.503 96.576 C 359.378 96.893,359.177 97.191,359.055 97.238 C 358.933 97.285,358.833 97.475,358.833 97.661 C 358.833 97.848,358.758 98.000,358.667 98.000 C 358.575 98.000,358.500 98.112,358.500 98.250 C 358.500 98.388,358.425 98.500,358.333 98.500 C 358.242 98.500,358.167 98.688,358.167 98.917 C 358.167 99.176,358.072 99.333,357.917 99.333 C 357.761 99.333,357.667 99.491,357.667 99.750 C 357.667 99.979,357.592 100.167,357.500 100.167 C 357.408 100.167,357.333 100.261,357.333 100.377 C 357.333 100.492,357.146 100.789,356.917 101.036 C 356.688 101.283,356.500 101.564,356.500 101.659 C 356.500 101.755,356.430 101.833,356.345 101.833 C 356.259 101.833,356.137 101.999,356.073 102.201 C 355.936 102.630,355.599 103.000,355.345 103.000 C 355.247 103.000,355.167 103.112,355.167 103.250 C 355.167 103.406,355.009 103.500,354.750 103.500 C 354.521 103.500,354.333 103.575,354.333 103.667 C 354.333 103.758,354.240 103.836,354.125 103.839 C 353.617 103.852,353.167 104.469,353.167 105.152 L 353.167 105.833 358.262 105.833 C 363.483 105.833,363.833 105.792,363.833 105.179 C 363.833 105.080,363.919 105.000,364.023 105.000 C 364.279 105.000,364.655 104.485,364.661 104.125 C 364.664 103.965,364.742 103.833,364.833 103.833 C 364.925 103.833,365.000 103.729,365.000 103.601 C 365.000 103.473,365.113 103.326,365.250 103.273 C 365.387 103.220,365.500 103.025,365.500 102.839 C 365.500 102.652,365.575 102.500,365.667 102.500 C 365.758 102.500,365.833 102.350,365.833 102.167 C 365.833 101.983,365.905 101.833,365.992 101.833 C 366.080 101.833,366.282 101.552,366.442 101.208 C 366.601 100.865,366.830 100.523,366.949 100.450 C 367.069 100.377,367.167 100.170,367.167 99.992 C 367.167 99.813,367.242 99.667,367.333 99.667 C 367.425 99.667,367.500 99.479,367.500 99.250 C 367.500 99.021,367.585 98.833,367.690 98.833 C 367.946 98.833,368.321 98.319,368.328 97.958 C 368.331 97.798,368.409 97.667,368.500 97.667 C 368.592 97.667,368.798 97.367,368.956 97.000 C 369.115 96.633,369.340 96.333,369.456 96.333 C 369.572 96.333,369.667 96.164,369.667 95.956 C 369.667 95.749,369.854 95.439,370.083 95.266 C 370.313 95.094,370.500 94.814,370.500 94.643 C 370.500 94.473,370.575 94.333,370.667 94.333 C 370.758 94.333,370.833 94.221,370.833 94.083 C 370.833 93.946,370.895 93.833,370.970 93.833 C 371.046 93.833,371.267 93.514,371.462 93.124 C 371.657 92.734,371.970 92.250,372.158 92.048 C 372.346 91.846,372.500 91.527,372.500 91.340 C 372.500 91.149,372.609 91.000,372.750 91.000 C 372.887 91.000,373.000 90.888,373.000 90.750 C 373.000 90.612,373.075 90.500,373.167 90.500 C 373.258 90.500,373.333 90.391,373.333 90.259 C 373.333 90.126,373.521 89.815,373.750 89.568 C 373.979 89.320,374.167 88.979,374.167 88.809 C 374.167 88.639,374.265 88.500,374.386 88.500 C 374.506 88.500,374.707 88.237,374.833 87.917 C 374.959 87.596,375.123 87.333,375.198 87.333 C 375.272 87.333,375.333 87.146,375.333 86.917 C 375.333 86.657,375.428 86.500,375.583 86.500 C 375.721 86.500,375.833 86.388,375.833 86.250 C 375.833 86.112,375.908 86.000,376.000 86.000 C 376.092 86.000,376.167 85.813,376.167 85.583 C 376.167 85.354,376.247 85.167,376.345 85.167 C 376.639 85.167,377.000 84.714,377.000 84.345 C 377.000 84.155,377.094 84.002,377.208 84.005 C 377.578 84.015,378.000 84.444,378.000 84.810 C 378.000 85.006,378.075 85.167,378.167 85.167 C 378.258 85.167,378.333 85.254,378.333 85.361 C 378.333 85.672,378.885 86.833,379.032 86.833 C 379.106 86.833,379.167 86.921,379.167 87.027 C 379.167 87.338,379.718 88.500,379.865 88.500 C 379.939 88.500,380.000 88.587,380.000 88.694 C 380.000 89.005,380.551 90.167,380.699 90.167 C 380.773 90.167,380.833 90.354,380.833 90.583 C 380.833 90.813,380.908 91.000,381.000 91.000 C 381.092 91.000,381.167 91.152,381.167 91.339 C 381.167 91.525,381.279 91.720,381.417 91.773 C 381.554 91.826,381.667 92.048,381.667 92.268 C 381.667 92.487,381.742 92.667,381.833 92.667 C 381.925 92.667,382.000 92.819,382.000 93.005 C 382.000 93.191,382.113 93.387,382.250 93.440 C 382.387 93.492,382.500 93.715,382.500 93.934 C 382.500 94.154,382.575 94.333,382.667 94.333 C 382.758 94.333,382.833 94.486,382.833 94.672 C 382.833 94.858,382.946 95.054,383.083 95.106 C 383.221 95.159,383.333 95.382,383.333 95.601 C 383.333 95.821,383.408 96.000,383.500 96.000 C 383.592 96.000,383.667 96.152,383.667 96.339 C 383.667 96.525,383.779 96.720,383.917 96.773 C 384.054 96.826,384.167 97.048,384.167 97.268 C 384.167 97.487,384.242 97.667,384.333 97.667 C 384.425 97.667,384.500 97.854,384.500 98.083 C 384.500 98.343,384.594 98.500,384.750 98.500 C 384.917 98.500,385.000 98.667,385.000 99.000 C 385.000 99.304,385.087 99.500,385.221 99.500 C 385.372 99.500,385.419 99.659,385.369 100.000 C 385.313 100.379,385.360 100.500,385.564 100.500 C 385.740 100.500,385.833 100.644,385.833 100.917 C 385.833 101.146,385.908 101.333,386.000 101.333 C 386.092 101.333,386.167 101.521,386.167 101.750 C 386.167 102.009,386.261 102.167,386.417 102.167 C 386.558 102.167,386.667 102.316,386.667 102.512 C 386.667 102.702,386.760 102.962,386.875 103.089 C 387.370 103.641,387.500 103.829,387.500 103.993 C 387.500 104.089,387.575 104.167,387.667 104.167 C 387.758 104.167,387.833 104.247,387.833 104.345 C 387.833 104.576,388.257 105.000,388.488 105.000 C 388.586 105.000,388.667 105.080,388.667 105.179 C 388.667 105.792,389.016 105.833,394.248 105.833 L 399.352 105.833 399.301 105.125 C 399.259 104.536,399.187 104.408,398.875 104.363 C 398.669 104.334,398.500 104.203,398.500 104.072 C 398.500 103.941,398.345 103.833,398.155 103.833 C 397.786 103.833,397.333 103.473,397.333 103.179 C 397.333 103.080,397.253 103.000,397.155 103.000 C 396.916 103.000,396.500 102.573,396.500 102.327 C 396.500 102.219,396.403 102.168,396.285 102.214 C 396.149 102.266,396.057 102.144,396.036 101.887 C 396.000 101.455,395.646 101.000,395.345 101.000 C 395.247 101.000,395.167 100.813,395.167 100.583 C 395.167 100.354,395.092 100.167,395.000 100.167 C 394.908 100.167,394.833 99.979,394.833 99.750 C 394.833 99.521,394.758 99.333,394.667 99.333 C 394.575 99.333,394.500 99.181,394.500 98.995 C 394.500 98.809,394.387 98.613,394.250 98.560 C 394.113 98.508,394.000 98.285,394.000 98.066 C 394.000 97.846,393.925 97.667,393.833 97.667 C 393.742 97.667,393.667 97.514,393.667 97.328 C 393.667 97.142,393.554 96.946,393.417 96.894 C 393.279 96.841,393.167 96.618,393.167 96.399 C 393.167 96.179,393.092 96.000,393.000 96.000 C 392.908 96.000,392.833 95.848,392.833 95.661 C 392.833 95.475,392.721 95.280,392.583 95.227 C 392.446 95.174,392.333 94.977,392.333 94.788 C 392.333 94.363,391.818 93.167,391.635 93.167 C 391.561 93.167,391.500 92.979,391.500 92.750 C 391.500 92.521,391.425 92.333,391.333 92.333 C 391.242 92.333,391.167 92.181,391.167 91.995 C 391.167 91.809,391.054 91.613,390.917 91.560 C 390.779 91.508,390.667 91.285,390.667 91.066 C 390.667 90.846,390.592 90.667,390.500 90.667 C 390.408 90.667,390.333 90.514,390.333 90.328 C 390.333 90.142,390.221 89.946,390.083 89.894 C 389.946 89.841,389.833 89.618,389.833 89.399 C 389.833 89.179,389.758 89.000,389.667 89.000 C 389.575 89.000,389.500 88.848,389.500 88.661 C 389.500 88.475,389.387 88.280,389.250 88.227 C 389.113 88.174,389.000 87.952,389.000 87.732 C 389.000 87.513,388.925 87.333,388.833 87.333 C 388.742 87.333,388.667 87.146,388.667 86.917 C 388.667 86.657,388.572 86.500,388.417 86.500 C 388.261 86.500,388.167 86.343,388.167 86.083 C 388.167 85.854,388.092 85.667,388.000 85.667 C 387.908 85.667,387.833 85.479,387.833 85.250 C 387.833 84.991,387.739 84.833,387.583 84.833 C 387.428 84.833,387.333 84.676,387.333 84.417 C 387.333 84.188,387.258 84.000,387.167 84.000 C 387.075 84.000,387.000 83.813,387.000 83.583 C 387.000 83.324,386.906 83.167,386.750 83.167 C 386.594 83.167,386.500 83.009,386.500 82.750 C 386.500 82.521,386.425 82.333,386.333 82.333 C 386.242 82.333,386.167 82.146,386.167 81.917 C 386.167 81.657,386.072 81.500,385.917 81.500 C 385.761 81.500,385.667 81.343,385.667 81.083 C 385.667 80.854,385.592 80.667,385.500 80.667 C 385.408 80.667,385.333 80.479,385.333 80.250 C 385.333 80.021,385.258 79.833,385.167 79.833 C 385.075 79.833,385.000 79.689,385.000 79.512 C 385.000 79.335,384.887 79.078,384.750 78.940 C 384.613 78.803,384.500 78.617,384.500 78.527 C 384.500 78.438,384.321 78.001,384.102 77.557 C 383.883 77.113,383.572 76.450,383.411 76.083 C 383.249 75.717,383.056 75.376,382.980 75.326 C 382.905 75.277,383.028 75.036,383.255 74.792 C 383.481 74.548,383.667 74.195,383.667 74.007 C 383.667 73.820,383.752 73.667,383.857 73.667 C 384.087 73.667,384.487 73.165,384.495 72.867 C 384.498 72.748,384.688 72.477,384.917 72.265 C 385.146 72.052,385.333 71.746,385.333 71.583 C 385.333 71.421,385.521 71.114,385.750 70.902 C 385.979 70.690,386.167 70.400,386.167 70.258 C 386.167 70.116,386.242 70.000,386.333 70.000 C 386.425 70.000,386.500 69.896,386.500 69.768 C 386.500 69.640,386.613 69.492,386.750 69.440 C 386.887 69.387,387.000 69.191,387.000 69.005 C 387.000 68.819,387.075 68.667,387.167 68.667 C 387.258 68.667,387.333 68.586,387.333 68.488 C 387.333 68.390,387.427 68.205,387.542 68.077 C 388.074 67.484,388.167 67.325,388.167 67.007 C 388.167 66.820,388.252 66.667,388.357 66.667 C 388.587 66.667,388.987 66.165,388.995 65.867 C 388.998 65.748,389.188 65.477,389.417 65.265 C 389.646 65.052,389.833 64.718,389.833 64.523 C 389.833 64.327,389.919 64.167,390.023 64.167 C 390.279 64.167,390.655 63.652,390.661 63.292 C 390.664 63.131,390.779 63.000,390.917 63.000 C 391.054 63.000,391.167 62.887,391.167 62.750 C 391.167 62.612,391.242 62.500,391.333 62.500 C 391.425 62.500,391.500 62.313,391.500 62.083 C 391.500 61.824,391.594 61.667,391.750 61.667 C 391.887 61.667,392.000 61.554,392.000 61.417 C 392.000 61.279,392.075 61.167,392.167 61.167 C 392.258 61.167,392.333 61.058,392.333 60.925 C 392.333 60.792,392.521 60.482,392.750 60.234 C 392.979 59.987,393.167 59.646,393.167 59.476 C 393.167 59.306,393.261 59.167,393.376 59.167 C 393.491 59.167,393.692 58.926,393.822 58.631 C 393.953 58.337,394.233 57.934,394.446 57.737 C 394.659 57.540,394.833 57.256,394.833 57.106 C 394.833 56.956,394.908 56.833,395.000 56.833 C 395.092 56.833,395.167 56.721,395.167 56.583 C 395.167 56.446,395.266 56.333,395.389 56.333 C 395.511 56.333,395.711 56.146,395.833 55.917 C 395.956 55.688,396.124 55.500,396.207 55.500 C 396.396 55.500,396.833 55.070,396.833 54.885 C 396.833 54.808,397.133 54.615,397.500 54.456 C 397.867 54.298,398.167 54.098,398.167 54.012 C 398.167 53.927,398.335 53.833,398.542 53.803 C 399.174 53.713,399.185 51.997,398.555 51.708 C 398.012 51.459,395.066 51.426,394.917 51.667 C 394.856 51.765,393.835 51.833,392.417 51.833 C 390.998 51.833,389.978 51.901,389.917 52.000 C 389.860 52.092,389.561 52.167,389.252 52.167 C 388.943 52.167,388.588 52.269,388.462 52.395 C 388.337 52.520,388.069 52.675,387.867 52.739 C 387.656 52.806,387.500 52.992,387.500 53.178 C 387.500 53.355,387.420 53.500,387.321 53.500 C 387.091 53.500,386.667 53.924,386.667 54.155 C 386.667 54.253,386.568 54.333,386.448 54.333 C 386.327 54.333,386.126 54.596,386.000 54.917 C 385.874 55.237,385.673 55.500,385.552 55.500 C 385.432 55.500,385.333 55.612,385.333 55.750 C 385.333 55.887,385.258 56.000,385.167 56.000 C 385.075 56.000,385.000 56.188,385.000 56.417 C 385.000 56.646,384.920 56.833,384.821 56.833 C 384.527 56.833,384.167 57.286,384.167 57.655 C 384.167 57.851,384.058 58.000,383.917 58.000 C 383.779 58.000,383.667 58.112,383.667 58.250 C 383.667 58.387,383.592 58.500,383.500 58.500 C 383.408 58.500,383.333 58.688,383.333 58.917 C 383.333 59.150,383.237 59.333,383.114 59.333 C 382.994 59.333,382.793 59.596,382.667 59.917 C 382.541 60.237,382.339 60.500,382.219 60.500 C 382.099 60.500,382.000 60.660,382.000 60.856 C 382.000 61.052,381.813 61.386,381.583 61.598 C 381.354 61.810,381.167 62.100,381.167 62.242 C 381.167 62.384,381.092 62.500,381.000 62.500 C 380.908 62.500,380.833 62.612,380.833 62.750 C 380.833 62.887,380.760 63.000,380.670 63.000 C 380.580 63.000,380.459 63.188,380.402 63.417 C 380.344 63.646,380.230 63.833,380.149 63.833 C 380.067 63.833,380.000 63.914,380.000 64.012 C 380.000 64.110,379.906 64.295,379.792 64.423 C 379.273 65.001,379.167 65.169,379.167 65.410 C 379.167 65.702,378.547 66.384,378.446 66.202 C 378.409 66.137,378.330 65.877,378.270 65.625 C 378.210 65.373,378.087 65.167,377.997 65.167 C 377.907 65.167,377.833 64.979,377.833 64.750 C 377.833 64.521,377.758 64.333,377.667 64.333 C 377.575 64.333,377.500 64.154,377.500 63.934 C 377.500 63.715,377.387 63.492,377.250 63.440 C 377.113 63.387,377.000 63.196,377.000 63.015 C 377.000 62.834,376.925 62.640,376.833 62.583 C 376.742 62.527,376.667 62.332,376.667 62.152 C 376.667 61.971,376.554 61.780,376.417 61.727 C 376.279 61.674,376.167 61.493,376.167 61.325 C 376.167 61.157,376.092 60.973,376.000 60.917 C 375.908 60.860,375.833 60.668,375.833 60.490 C 375.833 60.312,375.721 60.167,375.583 60.167 C 375.428 60.167,375.333 60.009,375.333 59.750 C 375.333 59.521,375.258 59.333,375.167 59.333 C 375.075 59.333,375.000 59.150,375.000 58.927 C 375.000 58.703,374.925 58.473,374.833 58.417 C 374.742 58.360,374.667 58.136,374.667 57.919 C 374.667 57.702,374.554 57.411,374.417 57.274 C 374.279 57.136,374.167 56.868,374.167 56.679 C 374.167 56.489,374.092 56.333,374.000 56.333 C 373.908 56.333,373.833 56.150,373.833 55.927 C 373.833 55.703,373.758 55.473,373.666 55.416 C 373.574 55.360,373.347 54.980,373.162 54.573 C 372.977 54.166,372.752 53.833,372.663 53.833 C 372.573 53.833,372.500 53.683,372.500 53.500 C 372.500 53.317,372.425 53.167,372.333 53.167 C 372.242 53.167,372.167 53.054,372.167 52.917 C 372.167 52.779,372.054 52.667,371.917 52.667 C 371.779 52.667,371.664 52.535,371.661 52.375 C 371.655 52.015,371.279 51.500,371.023 51.500 C 370.919 51.500,370.833 51.420,370.833 51.321 C 370.833 51.091,370.409 50.667,370.179 50.667 C 370.080 50.667,370.000 50.581,370.000 50.477 C 370.000 50.221,369.485 49.845,369.125 49.839 C 368.965 49.836,368.833 49.721,368.833 49.583 C 368.833 49.446,368.721 49.333,368.583 49.333 C 368.446 49.333,368.333 49.258,368.333 49.167 C 368.333 49.075,368.146 49.000,367.917 49.000 C 367.657 49.000,367.500 48.906,367.500 48.750 C 367.500 48.594,367.343 48.500,367.083 48.500 C 366.854 48.500,366.667 48.425,366.667 48.333 C 366.667 48.242,366.479 48.167,366.250 48.167 C 365.991 48.167,365.833 48.072,365.833 47.917 C 365.833 47.761,365.991 47.667,366.250 47.667 C 366.479 47.667,366.667 47.592,366.667 47.500 C 366.667 47.408,366.774 47.333,366.905 47.333 C 367.036 47.333,367.242 47.237,367.363 47.119 C 367.484 47.001,367.865 46.772,368.208 46.611 C 368.552 46.450,368.833 46.246,368.833 46.159 C 368.833 46.071,368.965 45.998,369.125 45.995 C 369.485 45.988,370.000 45.613,370.000 45.357 C 370.000 45.252,370.160 45.167,370.355 45.167 C 370.551 45.167,370.958 44.904,371.261 44.583 C 371.563 44.262,371.879 44.000,371.963 44.000 C 372.046 44.000,372.333 43.813,372.599 43.584 C 372.865 43.354,373.140 43.167,373.208 43.167 C 373.277 43.167,373.333 43.054,373.333 42.917 C 373.333 42.779,373.414 42.667,373.512 42.667 C 373.685 42.667,374.167 42.264,374.167 42.119 C 374.167 42.079,374.429 41.768,374.750 41.428 C 375.071 41.088,375.333 40.665,375.333 40.488 C 375.333 40.311,375.414 40.167,375.512 40.167 C 375.823 40.167,376.203 39.668,376.099 39.397 C 376.033 39.225,376.112 39.106,376.333 39.048 C 376.549 38.992,376.667 38.821,376.667 38.564 C 376.667 38.345,376.742 38.167,376.833 38.167 C 376.925 38.167,377.000 37.979,377.000 37.750 C 377.000 37.491,377.094 37.333,377.250 37.333 C 377.416 37.333,377.500 37.168,377.500 36.843 C 377.500 36.574,377.575 36.307,377.667 36.250 C 377.758 36.193,377.833 35.936,377.833 35.677 C 377.833 35.419,377.946 35.114,378.083 35.000 C 378.226 34.882,378.333 34.518,378.333 34.156 C 378.333 33.806,378.408 33.473,378.500 33.417 C 378.592 33.360,378.667 32.863,378.667 32.312 C 378.667 31.643,378.750 31.226,378.917 31.060 C 379.127 30.850,379.167 30.088,379.167 26.316 C 379.167 22.476,379.130 21.809,378.917 21.727 C 378.728 21.655,378.667 21.350,378.667 20.482 C 378.667 19.827,378.595 19.333,378.500 19.333 C 378.408 19.333,378.333 19.039,378.333 18.679 C 378.333 18.318,378.221 17.911,378.083 17.774 C 377.946 17.636,377.833 17.335,377.833 17.105 C 377.833 16.875,377.758 16.640,377.667 16.583 C 377.575 16.527,377.500 16.260,377.500 15.990 C 377.500 15.666,377.416 15.500,377.250 15.500 C 377.094 15.500,377.000 15.343,377.000 15.083 C 377.000 14.854,376.925 14.667,376.833 14.667 C 376.742 14.667,376.667 14.479,376.667 14.250 C 376.667 13.991,376.572 13.833,376.417 13.833 C 376.275 13.833,376.167 13.684,376.167 13.488 C 376.167 13.119,375.806 12.667,375.512 12.667 C 375.414 12.667,375.333 12.479,375.333 12.250 C 375.333 12.021,375.258 11.833,375.167 11.833 C 375.075 11.833,375.000 11.753,375.000 11.655 C 375.000 11.424,374.576 11.000,374.345 11.000 C 374.247 11.000,374.167 10.920,374.167 10.821 C 374.167 10.591,373.743 10.167,373.512 10.167 C 373.414 10.167,373.333 10.054,373.333 9.917 C 373.333 9.779,373.270 9.667,373.192 9.667 C 373.115 9.667,372.781 9.404,372.450 9.083 C 372.120 8.763,371.768 8.500,371.667 8.500 C 371.566 8.500,371.310 8.313,371.098 8.083 C 370.886 7.854,370.560 7.667,370.374 7.667 C 370.188 7.667,369.992 7.554,369.940 7.417 C 369.887 7.279,369.691 7.167,369.505 7.167 C 369.319 7.167,369.167 7.092,369.167 7.000 C 369.167 6.908,369.021 6.833,368.843 6.833 C 368.665 6.833,368.473 6.758,368.417 6.667 C 368.360 6.575,368.131 6.500,367.907 6.500 C 367.656 6.500,367.500 6.404,367.500 6.250 C 367.500 6.097,367.344 6.000,367.097 6.000 C 366.876 6.000,366.669 5.928,366.639 5.841 C 366.608 5.753,366.310 5.663,365.976 5.641 C 365.556 5.613,365.395 5.534,365.452 5.384 C 365.510 5.235,365.377 5.167,365.028 5.167 C 364.748 5.167,364.473 5.092,364.417 5.000 C 364.360 4.908,364.018 4.833,363.657 4.833 C 363.184 4.833,363.000 4.763,363.000 4.583 C 363.000 4.394,362.796 4.333,362.167 4.333 C 361.708 4.333,361.333 4.258,361.333 4.167 C 361.333 4.074,360.895 4.000,360.351 4.000 C 359.632 4.000,359.343 3.933,359.273 3.750 C 359.198 3.555,358.865 3.500,357.755 3.500 C 356.918 3.500,356.333 3.431,356.333 3.333 C 356.333 3.223,349.139 3.167,335.083 3.167 L 313.833 3.167 313.833 47.333 M355.365 11.248 C 356.153 11.316,356.723 11.450,356.844 11.596 C 356.959 11.735,357.343 11.833,357.770 11.833 C 358.172 11.833,358.500 11.908,358.500 12.000 C 358.500 12.092,358.753 12.167,359.063 12.167 C 359.373 12.167,359.719 12.279,359.833 12.417 C 359.947 12.554,360.257 12.667,360.520 12.667 C 360.784 12.667,361.000 12.742,361.000 12.833 C 361.000 12.925,361.188 13.000,361.417 13.000 C 361.646 13.000,361.833 13.075,361.833 13.167 C 361.833 13.258,362.021 13.333,362.250 13.333 C 362.509 13.333,362.667 13.428,362.667 13.583 C 362.667 13.732,362.820 13.833,363.044 13.833 C 363.251 13.833,363.561 14.021,363.734 14.250 C 363.906 14.479,364.186 14.667,364.357 14.667 C 364.527 14.667,364.667 14.742,364.667 14.833 C 364.667 14.925,364.779 15.000,364.917 15.000 C 365.054 15.000,365.167 15.080,365.167 15.179 C 365.167 15.409,365.591 15.833,365.821 15.833 C 365.920 15.833,366.000 15.914,366.000 16.012 C 366.000 16.243,366.424 16.667,366.655 16.667 C 366.753 16.667,366.833 16.779,366.833 16.917 C 366.833 17.054,366.908 17.167,367.000 17.167 C 367.092 17.167,367.167 17.283,367.167 17.425 C 367.167 17.567,367.354 17.856,367.583 18.069 C 367.813 18.281,368.000 18.615,368.000 18.811 C 368.000 19.007,368.075 19.167,368.167 19.167 C 368.258 19.167,368.333 19.319,368.333 19.505 C 368.333 19.691,368.446 19.887,368.583 19.940 C 368.738 19.999,368.833 20.252,368.833 20.601 C 368.833 20.912,368.908 21.167,369.000 21.167 C 369.092 21.167,369.167 21.432,369.167 21.755 C 369.167 22.125,369.260 22.380,369.417 22.440 C 369.611 22.514,369.667 22.845,369.667 23.934 C 369.667 24.756,369.735 25.333,369.833 25.333 C 369.932 25.333,370.000 25.941,370.000 26.823 C 370.000 27.643,369.925 28.360,369.833 28.417 C 369.742 28.473,369.667 29.107,369.667 29.825 C 369.667 30.832,369.609 31.153,369.417 31.227 C 369.261 31.287,369.167 31.541,369.167 31.902 C 369.167 32.220,369.092 32.527,369.000 32.583 C 368.908 32.640,368.833 32.899,368.833 33.159 C 368.833 33.425,368.724 33.673,368.583 33.727 C 368.446 33.780,368.333 33.975,368.333 34.161 C 368.333 34.348,368.258 34.500,368.167 34.500 C 368.075 34.500,368.000 34.688,368.000 34.917 C 368.000 35.146,367.925 35.333,367.833 35.333 C 367.742 35.333,367.667 35.446,367.667 35.583 C 367.667 35.721,367.554 35.833,367.417 35.833 C 367.278 35.833,367.167 35.981,367.167 36.167 C 367.167 36.350,367.092 36.500,367.000 36.500 C 366.908 36.500,366.833 36.612,366.833 36.750 C 366.833 36.887,366.753 37.000,366.655 37.000 C 366.475 37.000,366.000 37.405,366.000 37.559 C 366.000 37.666,364.999 38.667,364.892 38.667 C 364.739 38.667,364.333 39.142,364.333 39.321 C 364.333 39.420,364.221 39.500,364.083 39.500 C 363.946 39.500,363.833 39.575,363.833 39.667 C 363.833 39.758,363.717 39.833,363.575 39.833 C 363.433 39.833,363.144 40.021,362.931 40.250 C 362.719 40.479,362.385 40.667,362.189 40.667 C 361.984 40.667,361.833 40.772,361.833 40.917 C 361.833 41.072,361.676 41.167,361.417 41.167 C 361.188 41.167,361.000 41.242,361.000 41.333 C 361.000 41.425,360.813 41.500,360.583 41.500 C 360.324 41.500,360.167 41.594,360.167 41.750 C 360.167 41.925,359.991 42.000,359.583 42.000 C 359.262 42.000,359.000 42.075,359.000 42.167 C 359.000 42.258,358.700 42.333,358.333 42.333 C 357.967 42.333,357.667 42.408,357.667 42.500 C 357.667 42.592,357.372 42.667,357.012 42.667 C 356.652 42.667,356.245 42.779,356.107 42.917 C 355.945 43.079,355.532 43.167,354.929 43.167 C 354.418 43.167,354.000 43.242,354.000 43.333 C 354.000 43.435,353.205 43.500,351.949 43.500 C 350.403 43.500,349.817 43.560,349.574 43.745 C 349.296 43.955,347.402 43.990,336.125 43.995 L 323.000 44.000 323.000 27.498 L 323.000 10.997 338.542 11.067 C 347.090 11.106,354.660 11.188,355.365 11.248 M119.167 23.583 C 119.017 23.764,118.619 23.833,117.730 23.833 C 117.021 23.833,116.500 23.904,116.500 24.000 C 116.500 24.092,116.123 24.167,115.661 24.167 C 115.070 24.167,114.795 24.240,114.727 24.417 C 114.662 24.586,114.396 24.667,113.899 24.667 C 113.496 24.667,113.167 24.742,113.167 24.833 C 113.167 24.925,112.867 25.000,112.500 25.000 C 112.133 25.000,111.833 25.075,111.833 25.167 C 111.833 25.258,111.654 25.333,111.434 25.333 C 111.215 25.333,110.992 25.446,110.940 25.583 C 110.884 25.729,110.634 25.833,110.339 25.833 C 110.061 25.833,109.833 25.908,109.833 26.000 C 109.833 26.092,109.693 26.167,109.520 26.167 C 109.348 26.167,109.114 26.279,109.000 26.417 C 108.886 26.554,108.652 26.667,108.480 26.667 C 108.307 26.667,108.167 26.742,108.167 26.833 C 108.167 26.925,108.020 27.000,107.842 27.000 C 107.663 27.000,107.457 27.094,107.383 27.208 C 107.209 27.481,106.572 27.833,106.252 27.833 C 106.114 27.833,106.000 27.932,106.000 28.052 C 106.000 28.173,105.737 28.374,105.417 28.500 C 105.096 28.626,104.833 28.827,104.833 28.948 C 104.833 29.068,104.755 29.167,104.659 29.167 C 104.564 29.167,104.283 29.354,104.036 29.583 C 103.789 29.813,103.525 30.000,103.450 30.000 C 103.271 30.000,100.667 32.605,100.667 32.783 C 100.667 32.858,100.292 33.324,99.833 33.817 C 99.375 34.310,99.000 34.853,99.000 35.024 C 99.000 35.194,98.915 35.333,98.810 35.333 C 98.554 35.333,98.179 35.848,98.172 36.208 C 98.169 36.369,98.092 36.500,98.000 36.500 C 97.908 36.500,97.833 36.612,97.833 36.750 C 97.833 36.887,97.721 37.000,97.583 37.000 C 97.428 37.000,97.333 37.157,97.333 37.417 C 97.333 37.646,97.258 37.833,97.167 37.833 C 97.075 37.833,97.000 37.946,97.000 38.083 C 97.000 38.221,96.944 38.334,96.875 38.334 C 96.713 38.336,96.167 39.295,96.167 39.579 C 96.167 39.699,96.054 39.841,95.917 39.894 C 95.779 39.946,95.667 40.137,95.667 40.318 C 95.667 40.499,95.592 40.693,95.500 40.750 C 95.408 40.807,95.333 41.004,95.333 41.188 C 95.333 41.373,95.221 41.636,95.083 41.774 C 94.946 41.911,94.833 42.164,94.833 42.335 C 94.833 42.507,94.758 42.693,94.667 42.750 C 94.575 42.807,94.500 43.027,94.500 43.239 C 94.500 43.452,94.388 43.719,94.250 43.833 C 94.112 43.947,94.000 44.215,94.000 44.427 C 94.000 44.640,93.925 44.860,93.833 44.917 C 93.742 44.973,93.667 45.353,93.667 45.760 C 93.667 46.283,93.598 46.500,93.433 46.500 C 93.205 46.500,93.148 46.756,92.894 48.905 C 92.841 49.357,92.693 49.831,92.565 49.959 C 92.409 50.115,92.333 50.593,92.333 51.429 C 92.333 52.143,92.263 52.667,92.167 52.667 C 92.059 52.667,92.000 54.608,92.000 58.157 C 92.000 61.637,92.061 63.685,92.167 63.750 C 92.258 63.807,92.333 64.406,92.333 65.081 C 92.333 65.951,92.406 66.383,92.583 66.560 C 92.739 66.715,92.833 67.125,92.833 67.645 C 92.833 68.104,92.908 68.527,93.000 68.583 C 93.092 68.640,93.167 68.935,93.167 69.239 C 93.167 69.544,93.279 69.886,93.417 70.000 C 93.560 70.119,93.667 70.483,93.667 70.854 C 93.667 71.209,93.742 71.500,93.833 71.500 C 93.925 71.500,94.000 71.716,94.000 71.980 C 94.000 72.243,94.113 72.553,94.250 72.667 C 94.388 72.781,94.500 73.052,94.500 73.270 C 94.500 73.488,94.575 73.667,94.667 73.667 C 94.758 73.667,94.833 73.894,94.833 74.172 C 94.833 74.467,94.937 74.717,95.083 74.773 C 95.221 74.826,95.333 75.048,95.333 75.268 C 95.333 75.487,95.408 75.667,95.500 75.667 C 95.592 75.667,95.667 75.854,95.667 76.083 C 95.667 76.343,95.761 76.500,95.917 76.500 C 96.072 76.500,96.167 76.657,96.167 76.917 C 96.167 77.146,96.242 77.333,96.333 77.333 C 96.425 77.333,96.500 77.486,96.500 77.672 C 96.500 77.858,96.612 78.054,96.750 78.106 C 96.887 78.159,97.000 78.307,97.000 78.434 C 97.000 78.562,97.075 78.667,97.167 78.667 C 97.258 78.667,97.333 78.813,97.333 78.992 C 97.333 79.170,97.427 79.377,97.542 79.450 C 97.657 79.523,97.862 79.808,97.998 80.083 C 98.134 80.358,98.415 80.749,98.623 80.950 C 98.830 81.152,99.000 81.406,99.000 81.515 C 99.000 81.623,99.188 81.886,99.417 82.098 C 99.646 82.310,99.833 82.531,99.833 82.587 C 99.833 82.644,99.927 82.795,100.042 82.923 C 100.523 83.460,100.667 83.661,100.667 83.798 C 100.667 83.878,100.854 84.044,101.083 84.167 C 101.313 84.289,101.500 84.457,101.500 84.540 C 101.500 84.748,101.938 85.167,102.155 85.167 C 102.253 85.167,102.333 85.247,102.333 85.345 C 102.333 85.576,102.757 86.000,102.988 86.000 C 103.086 86.000,103.167 86.071,103.167 86.159 C 103.167 86.246,103.429 86.442,103.750 86.595 C 104.071 86.747,104.333 86.975,104.333 87.102 C 104.333 87.229,104.446 87.333,104.583 87.333 C 104.721 87.333,104.833 87.408,104.833 87.500 C 104.833 87.592,105.021 87.667,105.250 87.667 C 105.479 87.667,105.667 87.747,105.667 87.845 C 105.667 88.139,106.119 88.500,106.488 88.500 C 106.684 88.500,106.833 88.608,106.833 88.750 C 106.833 88.888,106.946 89.000,107.083 89.000 C 107.221 89.000,107.333 89.075,107.333 89.167 C 107.333 89.258,107.513 89.333,107.732 89.333 C 107.952 89.333,108.174 89.446,108.227 89.583 C 108.280 89.721,108.475 89.833,108.661 89.833 C 108.848 89.833,109.000 89.908,109.000 90.000 C 109.000 90.092,109.178 90.167,109.396 90.167 C 109.614 90.167,109.886 90.279,110.000 90.417 C 110.114 90.554,110.386 90.667,110.604 90.667 C 110.822 90.667,111.000 90.742,111.000 90.833 C 111.000 90.925,111.254 91.000,111.566 91.000 C 111.914 91.000,112.168 91.096,112.227 91.250 C 112.287 91.407,112.542 91.500,112.911 91.500 C 113.235 91.500,113.500 91.575,113.500 91.667 C 113.500 91.758,113.867 91.833,114.316 91.833 C 114.887 91.833,115.160 91.908,115.227 92.083 C 115.292 92.254,115.559 92.333,116.068 92.333 C 116.478 92.333,116.860 92.408,116.917 92.500 C 116.973 92.592,117.596 92.669,118.302 92.672 C 119.164 92.676,119.689 92.757,119.907 92.922 C 120.394 93.290,130.691 93.286,131.060 92.917 C 131.240 92.736,131.681 92.667,132.655 92.667 C 133.440 92.667,134.000 92.597,134.000 92.500 C 134.000 92.408,134.361 92.333,134.801 92.333 C 135.248 92.333,135.746 92.225,135.926 92.089 C 136.104 91.954,136.489 91.842,136.782 91.839 C 137.074 91.836,137.360 91.758,137.417 91.667 C 137.473 91.575,137.772 91.500,138.081 91.500 C 138.390 91.500,138.755 91.388,138.893 91.250 C 139.030 91.112,139.298 91.000,139.488 91.000 C 139.678 91.000,139.833 90.925,139.833 90.833 C 139.833 90.742,140.053 90.667,140.321 90.667 C 140.590 90.667,140.922 90.554,141.060 90.417 C 141.197 90.279,141.423 90.167,141.562 90.167 C 141.700 90.167,141.860 90.092,141.917 90.000 C 141.973 89.908,142.168 89.833,142.348 89.833 C 142.529 89.833,142.720 89.721,142.773 89.583 C 142.826 89.446,142.962 89.333,143.076 89.333 C 143.396 89.333,144.333 88.827,144.333 88.654 C 144.333 88.570,144.446 88.500,144.583 88.500 C 144.721 88.500,144.833 88.425,144.833 88.333 C 144.833 88.242,144.962 88.167,145.120 88.167 C 145.277 88.167,145.560 87.998,145.747 87.792 C 146.086 87.419,146.523 87.102,147.000 86.883 C 147.352 86.722,147.667 86.389,147.667 86.179 C 147.667 86.080,147.747 86.000,147.845 86.000 C 148.076 86.000,148.500 85.576,148.500 85.345 C 148.500 85.247,148.580 85.167,148.679 85.167 C 148.909 85.167,149.333 84.743,149.333 84.512 C 149.333 84.414,149.411 84.333,149.507 84.333 C 149.713 84.333,151.000 83.087,151.000 82.886 C 151.000 82.809,151.188 82.544,151.417 82.297 C 151.646 82.050,151.833 81.770,151.833 81.674 C 151.833 81.578,151.903 81.500,151.989 81.500 C 152.074 81.500,152.196 81.338,152.259 81.139 C 152.322 80.941,152.552 80.600,152.770 80.382 C 152.988 80.163,153.167 79.876,153.167 79.742 C 153.167 79.609,153.242 79.500,153.333 79.500 C 153.425 79.500,153.500 79.387,153.500 79.250 C 153.500 79.112,153.574 79.000,153.663 79.000 C 153.753 79.000,153.874 78.813,153.932 78.583 C 153.989 78.354,154.103 78.167,154.185 78.167 C 154.266 78.167,154.333 77.979,154.333 77.750 C 154.333 77.491,154.428 77.333,154.583 77.333 C 154.739 77.333,154.833 77.176,154.833 76.917 C 154.833 76.688,154.908 76.500,155.000 76.500 C 155.092 76.500,155.167 76.313,155.167 76.083 C 155.167 75.854,155.242 75.667,155.333 75.667 C 155.425 75.667,155.500 75.525,155.500 75.351 C 155.500 75.178,155.612 74.992,155.750 74.940 C 155.887 74.887,156.000 74.654,156.000 74.422 C 156.000 74.190,156.075 74.000,156.167 74.000 C 156.258 74.000,156.333 73.737,156.333 73.417 C 156.333 73.009,156.409 72.833,156.583 72.833 C 156.758 72.833,156.833 72.657,156.833 72.250 C 156.833 71.929,156.908 71.667,157.000 71.667 C 157.092 71.667,157.167 71.367,157.167 71.000 C 157.167 70.519,157.236 70.333,157.417 70.333 C 157.597 70.333,157.667 70.149,157.667 69.677 C 157.667 69.315,157.742 68.973,157.833 68.917 C 157.925 68.860,158.000 68.406,158.000 67.907 C 158.000 67.212,158.058 67.000,158.250 67.000 C 158.448 67.000,158.500 66.760,158.500 65.843 C 158.500 65.207,158.575 64.640,158.667 64.583 C 158.765 64.522,158.833 63.504,158.833 62.091 C 158.833 60.122,158.877 59.685,159.083 59.606 C 159.277 59.532,159.333 59.209,159.333 58.184 C 159.333 57.227,159.264 56.787,159.083 56.607 C 158.885 56.409,158.833 55.875,158.833 54.022 C 158.833 52.645,158.765 51.644,158.667 51.583 C 158.575 51.527,158.500 51.005,158.500 50.425 C 158.500 49.640,158.436 49.344,158.250 49.273 C 158.069 49.204,158.000 48.921,158.000 48.255 C 158.000 47.748,157.925 47.333,157.833 47.333 C 157.742 47.333,157.667 47.033,157.667 46.667 C 157.667 46.207,157.594 46.000,157.434 46.000 C 157.293 46.000,157.166 45.755,157.110 45.375 C 156.923 44.096,156.786 43.638,156.562 43.552 C 156.430 43.502,156.333 43.225,156.333 42.899 C 156.333 42.588,156.258 42.333,156.167 42.333 C 156.075 42.333,156.000 42.146,156.000 41.917 C 156.000 41.657,155.906 41.500,155.750 41.500 C 155.594 41.500,155.500 41.343,155.500 41.083 C 155.500 40.854,155.425 40.667,155.333 40.667 C 155.242 40.667,155.167 40.479,155.167 40.250 C 155.167 40.021,155.092 39.833,155.000 39.833 C 154.908 39.833,154.833 39.681,154.833 39.495 C 154.833 39.309,154.721 39.113,154.583 39.060 C 154.446 39.008,154.333 38.785,154.333 38.566 C 154.333 38.346,154.275 38.167,154.205 38.167 C 154.134 38.167,153.934 37.904,153.762 37.583 C 153.589 37.262,153.392 37.000,153.325 37.000 C 153.258 37.000,153.156 36.813,153.098 36.583 C 153.041 36.354,152.920 36.167,152.830 36.167 C 152.740 36.167,152.667 36.086,152.667 35.988 C 152.667 35.890,152.573 35.705,152.458 35.577 C 151.997 35.063,151.833 34.842,151.833 34.734 C 151.833 34.672,151.646 34.448,151.417 34.235 C 151.188 34.023,151.000 33.761,151.000 33.653 C 151.000 33.545,150.737 33.208,150.417 32.906 C 150.096 32.603,149.833 32.276,149.833 32.178 C 149.833 32.080,149.753 32.000,149.655 32.000 C 149.424 32.000,149.000 31.576,149.000 31.345 C 149.000 31.247,148.920 31.167,148.821 31.167 C 148.591 31.167,148.167 30.743,148.167 30.512 C 148.167 30.414,148.088 30.333,147.992 30.333 C 147.897 30.333,147.631 30.146,147.402 29.917 C 147.172 29.688,146.876 29.500,146.742 29.500 C 146.609 29.500,146.500 29.425,146.500 29.333 C 146.500 29.242,146.387 29.167,146.250 29.167 C 146.112 29.167,146.000 29.081,146.000 28.977 C 146.000 28.721,145.485 28.345,145.125 28.339 C 144.965 28.336,144.833 28.239,144.833 28.123 C 144.833 28.007,144.552 27.780,144.208 27.619 C 143.865 27.458,143.358 27.183,143.083 27.009 C 142.808 26.834,142.460 26.686,142.309 26.679 C 142.159 26.672,141.992 26.554,141.940 26.417 C 141.887 26.279,141.696 26.167,141.515 26.167 C 141.334 26.167,141.140 26.092,141.083 26.000 C 141.027 25.908,140.806 25.833,140.594 25.833 C 140.381 25.833,140.114 25.721,140.000 25.583 C 139.886 25.446,139.614 25.333,139.396 25.333 C 139.178 25.333,139.000 25.258,139.000 25.167 C 139.000 25.075,138.742 25.000,138.427 25.000 C 138.111 25.000,137.807 24.925,137.750 24.833 C 137.693 24.742,137.322 24.667,136.925 24.667 C 136.436 24.667,136.171 24.586,136.106 24.417 C 136.041 24.246,135.774 24.167,135.265 24.167 C 134.855 24.167,134.473 24.092,134.417 24.000 C 134.360 23.908,133.802 23.833,133.177 23.833 C 132.370 23.833,131.981 23.761,131.833 23.583 C 131.656 23.369,130.742 23.333,125.500 23.333 C 120.258 23.333,119.344 23.369,119.167 23.583 M191.727 23.583 C 191.654 23.774,191.340 23.833,190.399 23.833 C 189.689 23.833,189.167 23.904,189.167 24.000 C 189.167 24.092,188.800 24.167,188.351 24.167 C 187.780 24.167,187.507 24.242,187.440 24.417 C 187.374 24.588,187.106 24.667,186.589 24.667 C 186.173 24.667,185.833 24.742,185.833 24.833 C 185.833 24.925,185.533 25.000,185.167 25.000 C 184.800 25.000,184.500 25.075,184.500 25.167 C 184.500 25.258,184.318 25.333,184.095 25.333 C 183.873 25.333,183.578 25.446,183.440 25.583 C 183.303 25.721,183.035 25.833,182.845 25.833 C 182.655 25.833,182.500 25.908,182.500 26.000 C 182.500 26.092,182.313 26.167,182.083 26.167 C 181.824 26.167,181.667 26.261,181.667 26.417 C 181.667 26.572,181.509 26.667,181.250 26.667 C 181.021 26.667,180.833 26.742,180.833 26.833 C 180.833 26.925,180.681 27.000,180.495 27.000 C 180.309 27.000,180.113 27.113,180.060 27.250 C 180.008 27.387,179.812 27.500,179.626 27.500 C 179.440 27.500,179.114 27.688,178.902 27.917 C 178.690 28.146,178.400 28.333,178.258 28.333 C 178.116 28.333,178.000 28.408,178.000 28.500 C 178.000 28.592,177.887 28.667,177.750 28.667 C 177.612 28.667,177.500 28.779,177.500 28.917 C 177.500 29.056,177.352 29.167,177.167 29.167 C 176.983 29.167,176.833 29.242,176.833 29.333 C 176.833 29.425,176.721 29.500,176.583 29.500 C 176.446 29.500,176.333 29.613,176.333 29.750 C 176.333 29.887,176.253 30.000,176.155 30.000 C 175.924 30.000,175.500 30.424,175.500 30.655 C 175.500 30.753,175.420 30.833,175.321 30.833 C 175.091 30.833,174.667 31.257,174.667 31.488 C 174.667 31.586,174.586 31.667,174.488 31.667 C 174.257 31.667,173.833 32.091,173.833 32.321 C 173.833 32.420,173.753 32.500,173.655 32.500 C 173.432 32.500,173.000 32.921,173.000 33.137 C 173.000 33.225,172.887 33.341,172.750 33.394 C 172.612 33.446,172.500 33.604,172.500 33.745 C 172.500 33.885,172.425 34.000,172.333 34.000 C 172.242 34.000,172.167 34.112,172.167 34.250 C 172.167 34.387,172.054 34.500,171.917 34.500 C 171.779 34.500,171.667 34.612,171.667 34.750 C 171.667 34.887,171.592 35.000,171.500 35.000 C 171.408 35.000,171.333 35.116,171.333 35.258 C 171.333 35.400,171.146 35.690,170.917 35.902 C 170.688 36.114,170.500 36.448,170.500 36.644 C 170.500 36.840,170.415 37.000,170.310 37.000 C 170.060 37.000,169.679 37.512,169.672 37.857 C 169.669 38.008,169.554 38.174,169.417 38.227 C 169.279 38.280,169.167 38.475,169.167 38.661 C 169.167 38.848,169.092 39.000,169.000 39.000 C 168.908 39.000,168.833 39.179,168.833 39.399 C 168.833 39.618,168.721 39.841,168.583 39.894 C 168.446 39.946,168.333 40.142,168.333 40.328 C 168.333 40.514,168.258 40.667,168.167 40.667 C 168.075 40.667,168.000 40.854,168.000 41.083 C 168.000 41.313,167.925 41.500,167.833 41.500 C 167.742 41.500,167.667 41.679,167.667 41.899 C 167.667 42.118,167.554 42.341,167.417 42.394 C 167.271 42.450,167.167 42.699,167.167 42.995 C 167.167 43.273,167.092 43.500,167.000 43.500 C 166.908 43.500,166.833 43.693,166.833 43.929 C 166.833 44.164,166.721 44.470,166.583 44.607 C 166.446 44.745,166.333 45.114,166.333 45.429 C 166.333 45.743,166.258 46.000,166.167 46.000 C 166.075 46.000,166.000 46.292,166.000 46.649 C 166.000 47.072,165.913 47.331,165.750 47.394 C 165.569 47.463,165.500 47.746,165.500 48.411 C 165.500 48.918,165.425 49.333,165.333 49.333 C 165.240 49.333,165.167 49.799,165.167 50.396 C 165.167 51.138,165.091 51.522,164.917 51.667 C 164.715 51.834,164.667 52.353,164.667 54.354 C 164.667 55.896,164.604 56.833,164.500 56.833 C 164.403 56.833,164.333 57.389,164.333 58.167 C 164.333 58.944,164.403 59.500,164.500 59.500 C 164.604 59.500,164.667 60.440,164.667 61.988 C 164.667 63.978,164.717 64.526,164.917 64.726 C 165.083 64.893,165.167 65.310,165.167 65.978 C 165.167 66.529,165.242 67.027,165.333 67.083 C 165.425 67.140,165.500 67.597,165.500 68.098 C 165.500 68.755,165.570 69.037,165.750 69.106 C 165.912 69.169,166.000 69.427,166.000 69.841 C 166.000 70.193,166.075 70.527,166.167 70.583 C 166.258 70.640,166.333 70.947,166.333 71.265 C 166.333 71.626,166.428 71.880,166.583 71.940 C 166.721 71.992,166.833 72.211,166.833 72.425 C 166.833 72.639,166.908 72.860,167.000 72.917 C 167.092 72.973,167.167 73.243,167.167 73.515 C 167.167 73.802,167.272 74.051,167.417 74.106 C 167.554 74.159,167.667 74.382,167.667 74.601 C 167.667 74.821,167.725 75.000,167.797 75.000 C 167.869 75.000,168.026 75.334,168.147 75.743 C 168.267 76.152,168.471 76.574,168.600 76.680 C 168.728 76.787,168.833 76.977,168.833 77.104 C 168.833 77.230,168.908 77.333,169.000 77.333 C 169.092 77.333,169.167 77.521,169.167 77.750 C 169.167 78.009,169.261 78.167,169.417 78.167 C 169.557 78.167,169.667 78.316,169.667 78.507 C 169.667 78.695,169.854 79.050,170.083 79.297 C 170.313 79.544,170.500 79.861,170.500 80.000 C 170.500 80.140,170.688 80.395,170.917 80.567 C 171.146 80.739,171.333 80.992,171.333 81.129 C 171.333 81.266,171.521 81.552,171.750 81.765 C 171.979 81.977,172.167 82.216,172.167 82.295 C 172.167 82.374,172.429 82.734,172.750 83.095 C 173.071 83.455,173.333 83.806,173.333 83.875 C 173.333 83.944,173.414 84.000,173.512 84.000 C 173.743 84.000,174.167 84.424,174.167 84.655 C 174.167 84.753,174.247 84.833,174.345 84.833 C 174.576 84.833,175.000 85.257,175.000 85.488 C 175.000 85.586,175.080 85.667,175.179 85.667 C 175.409 85.667,175.833 86.091,175.833 86.321 C 175.833 86.420,175.946 86.500,176.083 86.500 C 176.221 86.500,176.333 86.575,176.333 86.667 C 176.333 86.758,176.414 86.833,176.512 86.833 C 176.610 86.833,176.795 86.927,176.923 87.042 C 177.466 87.529,177.661 87.667,177.808 87.667 C 177.894 87.667,178.008 87.779,178.060 87.917 C 178.113 88.054,178.271 88.167,178.411 88.167 C 178.552 88.167,178.667 88.242,178.667 88.333 C 178.667 88.425,178.779 88.500,178.917 88.500 C 179.054 88.500,179.167 88.574,179.167 88.663 C 179.167 88.753,179.354 88.874,179.583 88.932 C 179.813 88.989,180.000 89.103,180.000 89.185 C 180.000 89.266,180.188 89.333,180.417 89.333 C 180.676 89.333,180.833 89.428,180.833 89.583 C 180.833 89.739,180.991 89.833,181.250 89.833 C 181.479 89.833,181.667 89.908,181.667 90.000 C 181.667 90.092,181.822 90.167,182.012 90.167 C 182.202 90.167,182.470 90.279,182.607 90.417 C 182.745 90.554,183.039 90.667,183.262 90.667 C 183.485 90.667,183.667 90.742,183.667 90.833 C 183.667 90.925,183.835 91.002,184.042 91.005 C 184.248 91.008,184.562 91.121,184.740 91.255 C 184.918 91.390,185.270 91.500,185.522 91.500 C 185.774 91.500,186.027 91.575,186.083 91.667 C 186.140 91.758,186.450 91.833,186.772 91.833 C 187.094 91.833,187.470 91.946,187.607 92.083 C 187.761 92.237,188.170 92.333,188.669 92.333 C 189.115 92.333,189.527 92.408,189.583 92.500 C 189.640 92.592,190.247 92.667,190.932 92.667 C 191.774 92.667,192.306 92.750,192.570 92.923 C 193.093 93.266,203.677 93.221,203.792 92.875 C 203.839 92.732,204.271 92.667,205.171 92.667 C 205.891 92.667,206.527 92.592,206.583 92.500 C 206.640 92.408,207.059 92.333,207.515 92.333 C 208.098 92.333,208.372 92.259,208.440 92.083 C 208.507 91.908,208.780 91.833,209.351 91.833 C 209.800 91.833,210.167 91.758,210.167 91.667 C 210.167 91.575,210.429 91.500,210.750 91.500 C 211.157 91.500,211.333 91.425,211.333 91.250 C 211.333 91.076,211.508 91.000,211.907 91.000 C 212.222 91.000,212.527 90.925,212.583 90.833 C 212.640 90.742,212.827 90.667,212.998 90.667 C 213.169 90.667,213.422 90.554,213.560 90.417 C 213.697 90.279,214.002 90.167,214.238 90.167 C 214.474 90.167,214.667 90.092,214.667 90.000 C 214.667 89.908,214.819 89.833,215.005 89.833 C 215.191 89.833,215.387 89.721,215.440 89.583 C 215.492 89.446,215.659 89.331,215.809 89.328 C 216.155 89.321,216.667 88.940,216.667 88.690 C 216.667 88.585,216.854 88.500,217.083 88.500 C 217.313 88.500,217.500 88.425,217.500 88.333 C 217.500 88.242,217.604 88.167,217.732 88.167 C 217.860 88.167,218.008 88.054,218.060 87.917 C 218.113 87.779,218.276 87.667,218.423 87.667 C 218.705 87.667,219.167 87.286,219.167 87.053 C 219.167 86.977,219.410 86.807,219.708 86.675 C 220.234 86.443,223.333 83.442,223.333 83.166 C 223.333 83.090,223.633 82.706,224.000 82.313 C 224.367 81.920,224.667 81.501,224.667 81.382 C 224.667 81.264,224.742 81.167,224.833 81.167 C 224.925 81.167,225.000 81.054,225.000 80.917 C 225.000 80.779,225.083 80.667,225.184 80.667 C 225.286 80.667,225.326 80.554,225.273 80.417 C 225.216 80.268,225.272 80.167,225.411 80.167 C 225.539 80.167,225.692 80.017,225.750 79.833 C 225.808 79.650,225.926 79.500,226.011 79.500 C 226.097 79.500,226.167 79.313,226.167 79.083 C 226.167 78.824,226.261 78.667,226.417 78.667 C 226.554 78.667,226.667 78.554,226.667 78.417 C 226.667 78.279,226.742 78.167,226.833 78.167 C 226.925 78.167,227.000 77.979,227.000 77.750 C 227.000 77.491,227.094 77.333,227.250 77.333 C 227.406 77.333,227.500 77.176,227.500 76.917 C 227.500 76.688,227.575 76.500,227.667 76.500 C 227.758 76.500,227.833 76.313,227.833 76.083 C 227.833 75.824,227.928 75.667,228.083 75.667 C 228.239 75.667,228.333 75.509,228.333 75.250 C 228.333 75.021,228.408 74.833,228.500 74.833 C 228.592 74.833,228.667 74.571,228.667 74.250 C 228.667 73.843,228.742 73.667,228.917 73.667 C 229.071 73.667,229.167 73.510,229.167 73.260 C 229.167 73.036,229.242 72.807,229.333 72.750 C 229.425 72.693,229.500 72.436,229.500 72.177 C 229.500 71.919,229.612 71.614,229.750 71.500 C 229.887 71.386,230.000 71.044,230.000 70.739 C 230.000 70.435,230.075 70.140,230.167 70.083 C 230.258 70.027,230.333 69.694,230.333 69.344 C 230.333 68.982,230.441 68.618,230.583 68.500 C 230.742 68.368,230.833 68.000,230.833 67.489 C 230.833 67.048,230.908 66.640,231.000 66.583 C 231.092 66.527,231.167 65.893,231.167 65.175 C 231.167 64.168,231.224 63.847,231.417 63.773 C 231.632 63.691,231.667 62.920,231.667 58.250 C 231.667 53.580,231.632 52.809,231.417 52.727 C 231.224 52.653,231.167 52.332,231.167 51.325 C 231.167 50.607,231.092 49.973,231.000 49.917 C 230.908 49.860,230.833 49.452,230.833 49.011 C 230.833 48.500,230.742 48.132,230.583 48.000 C 230.440 47.881,230.333 47.517,230.333 47.146 C 230.333 46.791,230.258 46.500,230.167 46.500 C 230.075 46.500,230.000 46.243,230.000 45.929 C 230.000 45.614,229.887 45.245,229.750 45.107 C 229.612 44.970,229.500 44.664,229.500 44.429 C 229.500 44.193,229.425 44.000,229.333 44.000 C 229.242 44.000,229.167 43.735,229.167 43.411 C 229.167 43.042,229.074 42.787,228.917 42.727 C 228.779 42.674,228.667 42.489,228.667 42.316 C 228.667 42.142,228.592 42.000,228.500 42.000 C 228.408 42.000,228.333 41.784,228.333 41.520 C 228.333 41.257,228.221 40.947,228.083 40.833 C 227.946 40.719,227.833 40.534,227.833 40.422 C 227.833 40.104,227.327 39.167,227.154 39.167 C 227.070 39.167,227.000 39.054,227.000 38.917 C 227.000 38.779,226.925 38.667,226.833 38.667 C 226.742 38.667,226.667 38.479,226.667 38.250 C 226.667 37.991,226.572 37.833,226.417 37.833 C 226.272 37.833,226.167 37.683,226.167 37.477 C 226.167 37.282,225.979 36.948,225.750 36.735 C 225.521 36.523,225.333 36.247,225.333 36.123 C 225.333 35.998,225.183 35.735,225.000 35.538 C 224.817 35.342,224.667 35.114,224.667 35.033 C 224.667 34.952,224.479 34.667,224.250 34.401 C 224.021 34.135,223.834 33.860,223.834 33.792 C 223.833 33.723,223.733 33.667,223.610 33.667 C 223.487 33.667,223.244 33.404,223.072 33.083 C 222.899 32.762,222.700 32.500,222.629 32.500 C 222.558 32.500,222.500 32.400,222.500 32.278 C 222.500 32.156,222.313 31.956,222.083 31.833 C 221.854 31.711,221.667 31.543,221.667 31.460 C 221.667 31.290,221.245 30.833,221.087 30.833 C 221.031 30.833,220.810 30.646,220.598 30.417 C 220.386 30.188,220.089 30.000,219.939 30.000 C 219.789 30.000,219.667 29.887,219.667 29.750 C 219.667 29.613,219.572 29.500,219.456 29.500 C 219.340 29.500,219.105 29.313,218.933 29.083 C 218.761 28.854,218.480 28.667,218.310 28.667 C 218.139 28.667,218.000 28.592,218.000 28.500 C 218.000 28.408,217.887 28.333,217.750 28.333 C 217.612 28.333,217.500 28.221,217.500 28.083 C 217.500 27.930,217.344 27.833,217.097 27.833 C 216.876 27.833,216.669 27.770,216.639 27.692 C 216.565 27.502,215.222 26.667,214.991 26.667 C 214.891 26.667,214.697 26.554,214.560 26.417 C 214.422 26.279,214.169 26.167,213.998 26.167 C 213.827 26.167,213.640 26.092,213.583 26.000 C 213.527 25.908,213.305 25.833,213.091 25.833 C 212.877 25.833,212.659 25.721,212.606 25.583 C 212.551 25.439,212.302 25.333,212.015 25.333 C 211.743 25.333,211.473 25.258,211.417 25.167 C 211.360 25.075,211.056 25.000,210.740 25.000 C 210.425 25.000,210.167 24.925,210.167 24.833 C 210.167 24.742,209.875 24.667,209.518 24.667 C 209.095 24.667,208.836 24.580,208.773 24.417 C 208.704 24.236,208.421 24.167,207.755 24.167 C 207.248 24.167,206.833 24.092,206.833 24.000 C 206.833 23.904,206.306 23.833,205.583 23.833 C 204.583 23.833,204.333 23.783,204.333 23.583 C 204.333 23.366,203.527 23.333,198.078 23.333 C 192.672 23.333,191.810 23.367,191.727 23.583 M126.374 38.372 C 126.419 38.506,126.920 38.600,127.805 38.640 C 128.554 38.674,129.167 38.769,129.167 38.851 C 129.167 38.933,129.420 39.000,129.730 39.000 C 130.039 39.000,130.386 39.112,130.500 39.250 C 130.614 39.387,130.881 39.500,131.094 39.500 C 131.306 39.500,131.527 39.575,131.583 39.667 C 131.640 39.758,131.852 39.833,132.054 39.833 C 132.256 39.833,132.562 40.021,132.734 40.250 C 132.906 40.479,133.186 40.667,133.357 40.667 C 133.527 40.667,133.667 40.742,133.667 40.833 C 133.667 40.925,133.779 41.000,133.917 41.000 C 134.054 41.000,134.167 41.080,134.167 41.179 C 134.167 41.409,134.591 41.833,134.821 41.833 C 134.920 41.833,135.000 41.914,135.000 42.012 C 135.000 42.243,135.424 42.667,135.655 42.667 C 135.753 42.667,135.833 42.747,135.833 42.845 C 135.833 43.076,136.257 43.500,136.488 43.500 C 136.586 43.500,136.667 43.612,136.667 43.750 C 136.667 43.887,136.742 44.000,136.833 44.000 C 136.925 44.000,137.000 44.152,137.000 44.339 C 137.000 44.525,137.112 44.720,137.250 44.773 C 137.387 44.826,137.500 45.011,137.500 45.184 C 137.500 45.358,137.557 45.500,137.626 45.500 C 137.754 45.500,138.048 46.112,138.246 46.792 C 138.307 46.998,138.426 47.167,138.511 47.167 C 138.597 47.167,138.667 47.350,138.667 47.573 C 138.667 47.797,138.742 48.027,138.833 48.083 C 138.925 48.140,139.000 48.435,139.000 48.739 C 139.000 49.044,139.105 49.380,139.234 49.487 C 139.470 49.682,139.573 50.233,139.797 52.487 C 139.871 53.226,140.003 53.751,140.127 53.792 C 140.462 53.904,140.421 62.387,140.083 62.667 C 139.905 62.814,139.833 63.205,139.833 64.020 C 139.833 64.673,139.762 65.167,139.667 65.167 C 139.575 65.167,139.500 65.510,139.500 65.929 C 139.500 66.384,139.399 66.791,139.250 66.940 C 139.112 67.078,139.000 67.448,139.000 67.762 C 139.000 68.076,138.925 68.333,138.833 68.333 C 138.742 68.333,138.667 68.521,138.667 68.750 C 138.667 68.979,138.593 69.167,138.503 69.167 C 138.413 69.167,138.288 69.373,138.226 69.625 C 138.163 69.877,137.973 70.332,137.803 70.636 C 137.633 70.940,137.540 71.263,137.597 71.355 C 137.654 71.447,137.543 71.564,137.350 71.614 C 137.152 71.666,137.000 71.841,137.000 72.016 C 137.000 72.187,136.737 72.598,136.417 72.928 C 136.096 73.258,135.833 73.672,135.833 73.848 C 135.833 74.023,135.753 74.167,135.655 74.167 C 135.424 74.167,135.000 74.591,135.000 74.821 C 135.000 74.920,134.856 75.000,134.681 75.000 C 134.506 75.000,134.092 75.262,133.761 75.583 C 133.431 75.904,133.012 76.167,132.830 76.167 C 132.648 76.167,132.500 76.279,132.500 76.417 C 132.500 76.572,132.343 76.667,132.083 76.667 C 131.854 76.667,131.667 76.742,131.667 76.833 C 131.667 76.925,131.479 77.000,131.250 77.000 C 130.991 77.000,130.833 77.094,130.833 77.250 C 130.833 77.430,130.649 77.500,130.177 77.500 C 129.815 77.500,129.473 77.575,129.417 77.667 C 129.360 77.758,128.831 77.833,128.240 77.833 C 127.636 77.833,127.167 77.906,127.167 78.000 C 127.167 78.100,126.476 78.167,125.427 78.167 C 124.446 78.167,123.641 78.094,123.583 78.000 C 123.527 77.908,122.997 77.833,122.407 77.833 C 121.802 77.833,121.333 77.761,121.333 77.667 C 121.333 77.575,121.041 77.500,120.684 77.500 C 120.262 77.500,120.002 77.413,119.940 77.250 C 119.884 77.104,119.634 77.000,119.339 77.000 C 119.061 77.000,118.833 76.925,118.833 76.833 C 118.833 76.742,118.646 76.667,118.417 76.667 C 118.157 76.667,118.000 76.572,118.000 76.417 C 118.000 76.279,117.888 76.167,117.750 76.167 C 117.612 76.167,117.500 76.092,117.500 76.000 C 117.500 75.908,117.313 75.833,117.083 75.833 C 116.854 75.833,116.667 75.753,116.667 75.655 C 116.667 75.424,116.243 75.000,116.012 75.000 C 115.914 75.000,115.833 74.920,115.833 74.821 C 115.833 74.591,115.409 74.167,115.179 74.167 C 115.080 74.167,115.000 74.085,115.000 73.986 C 115.000 73.887,114.737 73.551,114.417 73.239 C 114.096 72.927,113.833 72.585,113.833 72.477 C 113.833 72.369,113.646 72.036,113.417 71.735 C 113.188 71.435,113.000 71.109,113.000 71.011 C 113.000 70.913,112.925 70.833,112.833 70.833 C 112.742 70.833,112.667 70.646,112.667 70.417 C 112.667 70.157,112.572 70.000,112.417 70.000 C 112.242 70.000,112.167 69.824,112.167 69.417 C 112.167 69.096,112.092 68.833,112.000 68.833 C 111.908 68.833,111.833 68.660,111.833 68.449 C 111.833 68.237,111.723 67.918,111.589 67.740 C 111.454 67.562,111.342 67.173,111.339 66.875 C 111.336 66.577,111.258 66.333,111.167 66.333 C 111.074 66.333,111.000 65.887,111.000 65.328 C 111.000 64.588,110.934 64.298,110.750 64.227 C 110.550 64.150,110.500 63.786,110.500 62.409 C 110.500 61.440,110.427 60.641,110.333 60.583 C 110.235 60.523,110.167 59.526,110.167 58.157 C 110.167 56.719,110.230 55.833,110.333 55.833 C 110.434 55.833,110.500 55.117,110.500 54.018 C 110.500 52.558,110.549 52.184,110.750 52.106 C 110.931 52.037,111.000 51.754,111.000 51.089 C 111.000 50.582,111.075 50.167,111.167 50.167 C 111.258 50.167,111.333 49.899,111.333 49.571 C 111.333 49.244,111.446 48.864,111.583 48.726 C 111.721 48.589,111.833 48.294,111.833 48.071 C 111.833 47.849,111.908 47.667,112.000 47.667 C 112.092 47.667,112.167 47.412,112.167 47.101 C 112.167 46.752,112.262 46.499,112.417 46.440 C 112.554 46.387,112.667 46.191,112.667 46.005 C 112.667 45.819,112.733 45.667,112.814 45.667 C 112.895 45.667,113.011 45.535,113.071 45.375 C 113.278 44.827,113.579 44.333,113.706 44.333 C 113.776 44.333,113.833 44.253,113.833 44.155 C 113.833 44.057,113.927 43.872,114.042 43.744 C 114.494 43.239,114.667 43.010,114.667 42.912 C 114.667 42.743,115.130 42.333,115.321 42.333 C 115.420 42.333,115.500 42.253,115.500 42.155 C 115.500 41.924,115.924 41.500,116.155 41.500 C 116.253 41.500,116.333 41.387,116.333 41.250 C 116.333 41.112,116.465 40.998,116.625 40.995 C 116.985 40.988,117.500 40.613,117.500 40.357 C 117.500 40.252,117.688 40.167,117.917 40.167 C 118.146 40.167,118.333 40.092,118.333 40.000 C 118.333 39.908,118.521 39.833,118.750 39.833 C 118.979 39.833,119.167 39.758,119.167 39.667 C 119.167 39.575,119.354 39.500,119.583 39.500 C 119.843 39.500,120.000 39.406,120.000 39.250 C 120.000 39.065,120.193 39.000,120.740 39.000 C 121.147 39.000,121.527 38.925,121.583 38.833 C 121.640 38.742,122.155 38.667,122.728 38.667 C 123.386 38.667,123.889 38.577,124.093 38.422 C 124.500 38.114,126.275 38.076,126.374 38.372 M199.273 38.416 C 199.547 38.559,200.194 38.665,200.792 38.666 C 201.374 38.666,201.833 38.740,201.833 38.833 C 201.833 38.925,202.125 39.000,202.482 39.000 C 202.905 39.000,203.164 39.087,203.227 39.250 C 203.283 39.396,203.533 39.500,203.828 39.500 C 204.106 39.500,204.333 39.575,204.333 39.667 C 204.333 39.758,204.431 39.833,204.550 39.833 C 204.933 39.833,205.664 40.243,205.665 40.458 C 205.666 40.573,205.822 40.667,206.012 40.667 C 206.391 40.667,206.833 41.030,206.833 41.341 C 206.833 41.457,206.971 41.503,207.167 41.452 C 207.356 41.402,207.458 41.433,207.402 41.524 C 207.348 41.611,207.573 41.937,207.902 42.247 C 208.231 42.557,208.500 42.859,208.500 42.917 C 208.500 43.090,208.961 43.500,209.155 43.500 C 209.253 43.500,209.333 43.612,209.333 43.750 C 209.333 43.887,209.408 44.000,209.500 44.000 C 209.592 44.000,209.667 44.152,209.667 44.339 C 209.667 44.525,209.779 44.720,209.917 44.773 C 210.054 44.826,210.167 45.011,210.167 45.184 C 210.167 45.358,210.234 45.500,210.315 45.500 C 210.397 45.500,210.511 45.688,210.568 45.917 C 210.626 46.146,210.747 46.333,210.837 46.333 C 210.926 46.333,211.000 46.521,211.000 46.750 C 211.000 46.979,211.075 47.167,211.167 47.167 C 211.258 47.167,211.333 47.350,211.333 47.575 C 211.333 47.800,211.458 48.053,211.611 48.139 C 211.798 48.243,211.881 48.490,211.866 48.891 C 211.854 49.219,211.917 49.532,212.005 49.587 C 212.094 49.641,212.167 49.977,212.167 50.331 C 212.167 50.686,212.279 51.089,212.417 51.226 C 212.592 51.401,212.667 51.829,212.667 52.655 C 212.667 53.329,212.738 53.833,212.833 53.833 C 212.940 53.833,213.000 55.386,213.000 58.157 C 213.000 60.859,212.938 62.519,212.833 62.583 C 212.742 62.640,212.667 63.198,212.667 63.823 C 212.667 64.630,212.594 65.019,212.417 65.167 C 212.274 65.285,212.167 65.648,212.167 66.011 C 212.167 66.361,212.092 66.693,212.000 66.750 C 211.908 66.807,211.833 67.151,211.833 67.515 C 211.833 67.950,211.747 68.210,211.583 68.273 C 211.446 68.326,211.333 68.548,211.333 68.768 C 211.333 68.987,211.258 69.167,211.167 69.167 C 211.075 69.167,211.000 69.392,211.000 69.667 C 211.000 69.942,210.944 70.167,210.875 70.168 C 210.713 70.169,210.167 71.128,210.167 71.412 C 210.167 71.533,210.054 71.674,209.917 71.727 C 209.779 71.780,209.667 71.943,209.667 72.089 C 209.667 72.236,209.404 72.603,209.083 72.906 C 208.762 73.208,208.500 73.503,208.500 73.561 C 208.500 73.693,207.202 75.000,207.071 75.000 C 206.908 75.000,206.500 75.467,206.500 75.655 C 206.500 75.753,206.402 75.833,206.283 75.833 C 205.901 75.833,205.169 76.243,205.168 76.458 C 205.167 76.573,204.979 76.667,204.750 76.667 C 204.521 76.667,204.333 76.742,204.333 76.833 C 204.333 76.925,204.155 77.000,203.937 77.000 C 203.719 77.000,203.447 77.112,203.333 77.250 C 203.219 77.387,202.873 77.500,202.563 77.500 C 202.253 77.500,202.000 77.575,202.000 77.667 C 202.000 77.761,201.528 77.833,200.917 77.833 C 200.306 77.833,199.833 77.906,199.833 78.000 C 199.833 78.100,199.142 78.167,198.093 78.167 C 197.113 78.167,196.308 78.094,196.250 78.000 C 196.193 77.908,195.664 77.833,195.073 77.833 C 194.469 77.833,194.000 77.761,194.000 77.667 C 194.000 77.575,193.708 77.500,193.351 77.500 C 192.928 77.500,192.669 77.413,192.606 77.250 C 192.550 77.104,192.301 77.000,192.005 77.000 C 191.727 77.000,191.500 76.925,191.500 76.833 C 191.500 76.742,191.313 76.667,191.083 76.667 C 190.854 76.667,190.667 76.581,190.667 76.477 C 190.667 76.221,190.152 75.845,189.792 75.839 C 189.631 75.836,189.500 75.721,189.500 75.583 C 189.500 75.446,189.426 75.333,189.336 75.333 C 189.123 75.333,187.000 73.210,187.000 72.997 C 187.000 72.907,186.887 72.833,186.750 72.833 C 186.612 72.833,186.500 72.709,186.500 72.557 C 186.500 72.406,186.313 72.036,186.083 71.735 C 185.854 71.435,185.667 71.109,185.667 71.011 C 185.667 70.913,185.592 70.833,185.500 70.833 C 185.408 70.833,185.333 70.646,185.333 70.417 C 185.333 70.188,185.258 70.000,185.167 70.000 C 185.075 70.000,185.000 69.818,185.000 69.595 C 185.000 69.373,184.887 69.078,184.750 68.940 C 184.612 68.803,184.500 68.502,184.500 68.272 C 184.500 68.041,184.425 67.807,184.333 67.750 C 184.242 67.693,184.167 67.393,184.167 67.082 C 184.167 66.737,184.063 66.458,183.900 66.368 C 183.707 66.259,183.636 65.975,183.641 65.324 C 183.645 64.831,183.584 64.351,183.507 64.256 C 183.429 64.161,183.339 63.302,183.308 62.347 C 183.268 61.149,183.185 60.589,183.042 60.542 C 182.888 60.491,182.833 59.863,182.833 58.167 C 182.833 56.470,182.888 55.843,183.042 55.792 C 183.186 55.744,183.267 55.177,183.307 53.945 C 183.338 52.967,183.432 52.167,183.515 52.167 C 183.598 52.167,183.667 51.749,183.667 51.238 C 183.667 50.635,183.754 50.222,183.917 50.060 C 184.054 49.922,184.167 49.557,184.167 49.248 C 184.167 48.939,184.242 48.640,184.333 48.583 C 184.425 48.527,184.500 48.297,184.500 48.073 C 184.500 47.850,184.572 47.667,184.659 47.667 C 184.747 47.667,184.867 47.404,184.928 47.083 C 184.988 46.762,185.104 46.500,185.185 46.500 C 185.267 46.500,185.333 46.313,185.333 46.083 C 185.333 45.854,185.400 45.667,185.481 45.667 C 185.562 45.667,185.677 45.535,185.738 45.375 C 185.944 44.827,186.246 44.333,186.373 44.333 C 186.443 44.333,186.500 44.253,186.500 44.155 C 186.500 44.057,186.594 43.872,186.708 43.744 C 187.203 43.192,187.333 43.004,187.333 42.840 C 187.333 42.745,187.414 42.667,187.512 42.667 C 187.743 42.667,188.167 42.243,188.167 42.012 C 188.167 41.914,188.247 41.833,188.345 41.833 C 188.576 41.833,189.000 41.409,189.000 41.179 C 189.000 41.080,189.188 41.000,189.417 41.000 C 189.646 41.000,189.833 40.925,189.833 40.833 C 189.833 40.742,189.946 40.667,190.083 40.667 C 190.221 40.667,190.333 40.554,190.333 40.417 C 190.333 40.261,190.491 40.167,190.750 40.167 C 190.979 40.167,191.167 40.092,191.167 40.000 C 191.167 39.908,191.317 39.833,191.500 39.833 C 191.683 39.833,191.833 39.758,191.833 39.667 C 191.833 39.575,192.023 39.500,192.255 39.500 C 192.487 39.500,192.720 39.387,192.773 39.250 C 192.838 39.080,193.104 39.000,193.601 39.000 C 194.004 39.000,194.333 38.925,194.333 38.833 C 194.333 38.740,194.795 38.667,195.385 38.667 C 196.051 38.667,196.555 38.577,196.760 38.422 C 197.184 38.101,198.662 38.097,199.273 38.416 M271.750 39.667 C 271.807 39.758,272.186 39.833,272.593 39.833 C 273.000 39.833,273.333 39.908,273.333 40.000 C 273.333 40.092,273.523 40.167,273.755 40.167 C 273.987 40.167,274.220 40.279,274.273 40.417 C 274.326 40.554,274.507 40.667,274.675 40.667 C 274.843 40.667,275.027 40.742,275.083 40.833 C 275.140 40.925,275.332 41.000,275.510 41.000 C 275.688 41.000,275.833 41.112,275.833 41.250 C 275.833 41.406,275.991 41.500,276.250 41.500 C 276.479 41.500,276.667 41.575,276.667 41.667 C 276.667 41.758,276.779 41.833,276.917 41.833 C 277.054 41.833,277.167 41.914,277.167 42.012 C 277.167 42.243,277.591 42.667,277.821 42.667 C 277.920 42.667,278.000 42.747,278.000 42.845 C 278.000 42.942,278.450 43.468,279.000 44.013 C 279.550 44.558,280.000 45.072,280.000 45.155 C 280.000 45.388,280.567 46.331,280.708 46.332 C 280.777 46.333,280.833 46.446,280.833 46.583 C 280.833 46.721,280.908 46.833,281.000 46.833 C 281.092 46.833,281.167 47.012,281.167 47.230 C 281.167 47.448,281.279 47.719,281.417 47.833 C 281.554 47.947,281.667 48.219,281.667 48.437 C 281.667 48.655,281.742 48.833,281.833 48.833 C 281.925 48.833,282.000 49.098,282.000 49.422 C 282.000 49.791,282.093 50.046,282.250 50.106 C 282.412 50.169,282.500 50.427,282.500 50.841 C 282.500 51.193,282.575 51.527,282.667 51.583 C 282.758 51.640,282.833 52.085,282.833 52.573 C 282.833 53.157,282.918 53.530,283.083 53.667 C 283.295 53.843,283.333 54.639,283.333 58.925 C 283.333 63.193,283.295 64.015,283.083 64.226 C 282.928 64.382,282.833 64.791,282.833 65.312 C 282.833 65.771,282.758 66.193,282.667 66.250 C 282.575 66.307,282.500 66.603,282.500 66.909 C 282.500 67.249,282.403 67.502,282.250 67.560 C 282.093 67.620,282.000 67.875,282.000 68.245 C 282.000 68.568,281.925 68.833,281.833 68.833 C 281.742 68.833,281.667 69.021,281.667 69.250 C 281.667 69.479,281.593 69.667,281.503 69.667 C 281.413 69.667,281.293 69.854,281.235 70.083 C 281.178 70.313,281.064 70.500,280.982 70.500 C 280.900 70.500,280.833 70.641,280.833 70.813 C 280.833 70.985,280.721 71.219,280.583 71.333 C 280.446 71.447,280.333 71.644,280.333 71.770 C 280.333 71.897,280.258 72.000,280.167 72.000 C 280.075 72.000,280.000 72.112,280.000 72.250 C 280.000 72.387,279.930 72.500,279.845 72.500 C 279.759 72.500,279.638 72.661,279.575 72.858 C 279.513 73.055,279.133 73.536,278.731 73.927 C 278.329 74.317,278.000 74.719,278.000 74.818 C 278.000 74.918,277.922 75.000,277.826 75.000 C 277.663 75.000,277.474 75.130,276.923 75.625 C 276.795 75.740,276.610 75.833,276.512 75.833 C 276.414 75.833,276.333 75.908,276.333 76.000 C 276.333 76.092,276.146 76.167,275.917 76.167 C 275.657 76.167,275.500 76.261,275.500 76.417 C 275.500 76.572,275.343 76.667,275.083 76.667 C 274.854 76.667,274.667 76.742,274.667 76.833 C 274.667 76.925,274.485 77.000,274.262 77.000 C 274.039 77.000,273.745 77.113,273.607 77.250 C 273.468 77.389,273.061 77.500,272.688 77.500 C 272.321 77.500,271.973 77.575,271.917 77.667 C 271.855 77.766,270.779 77.833,269.250 77.833 C 267.721 77.833,266.645 77.766,266.583 77.667 C 266.527 77.575,266.155 77.500,265.758 77.500 C 265.270 77.500,265.005 77.419,264.940 77.250 C 264.884 77.104,264.634 77.000,264.339 77.000 C 264.061 77.000,263.833 76.925,263.833 76.833 C 263.833 76.742,263.646 76.667,263.417 76.667 C 263.157 76.667,263.000 76.572,263.000 76.417 C 263.000 76.268,262.847 76.167,262.623 76.167 C 262.415 76.167,262.105 75.979,261.933 75.750 C 261.761 75.521,261.518 75.333,261.393 75.333 C 261.269 75.333,261.167 75.258,261.167 75.167 C 261.167 75.075,261.017 75.000,260.833 75.000 C 260.650 75.000,260.500 74.922,260.500 74.826 C 260.500 74.730,260.313 74.450,260.083 74.203 C 259.854 73.956,259.667 73.686,259.667 73.604 C 259.667 73.522,259.479 73.281,259.250 73.069 C 259.021 72.856,258.833 72.567,258.833 72.425 C 258.833 72.283,258.758 72.167,258.667 72.167 C 258.575 72.167,258.500 72.054,258.500 71.917 C 258.500 71.779,258.387 71.667,258.250 71.667 C 258.094 71.667,258.000 71.509,258.000 71.250 C 258.000 71.021,257.925 70.833,257.833 70.833 C 257.742 70.833,257.667 70.646,257.667 70.417 C 257.667 70.173,257.571 70.000,257.436 70.000 C 257.308 70.000,257.163 69.794,257.112 69.542 C 256.883 68.401,256.770 68.074,256.559 67.950 C 256.423 67.870,256.333 67.522,256.333 67.075 C 256.333 66.667,256.258 66.333,256.167 66.333 C 256.075 66.333,256.000 65.925,256.000 65.425 C 256.000 64.786,255.925 64.475,255.747 64.375 C 255.546 64.262,255.492 63.867,255.486 62.453 C 255.482 61.474,255.409 60.630,255.323 60.577 C 255.098 60.438,255.120 56.667,255.346 56.667 C 255.450 56.667,255.513 56.370,255.497 55.958 C 255.418 53.959,255.500 53.000,255.750 53.000 C 255.942 53.000,256.000 52.788,256.000 52.093 C 256.000 51.594,256.075 51.140,256.167 51.083 C 256.258 51.027,256.333 50.685,256.333 50.323 C 256.333 49.851,256.403 49.667,256.583 49.667 C 256.758 49.667,256.833 49.491,256.833 49.083 C 256.833 48.762,256.908 48.500,257.000 48.500 C 257.092 48.500,257.167 48.322,257.167 48.104 C 257.167 47.886,257.279 47.614,257.417 47.500 C 257.554 47.386,257.667 47.156,257.667 46.989 C 257.667 46.823,257.742 46.640,257.833 46.583 C 257.925 46.527,258.000 46.332,258.000 46.152 C 258.000 45.971,258.112 45.780,258.250 45.727 C 258.387 45.674,258.500 45.527,258.500 45.399 C 258.500 45.271,258.575 45.167,258.667 45.167 C 258.758 45.167,258.833 44.979,258.833 44.750 C 258.833 44.521,258.914 44.333,259.012 44.333 C 259.198 44.333,259.667 43.926,259.667 43.764 C 259.667 43.631,260.192 43.001,260.567 42.685 C 260.741 42.537,261.022 42.285,261.192 42.125 C 261.361 41.965,261.543 41.833,261.595 41.833 C 261.759 41.833,262.167 41.366,262.167 41.179 C 262.167 41.080,262.354 41.000,262.583 41.000 C 262.813 41.000,263.000 40.925,263.000 40.833 C 263.000 40.742,263.188 40.667,263.417 40.667 C 263.676 40.667,263.833 40.572,263.833 40.417 C 263.833 40.242,264.009 40.167,264.417 40.167 C 264.737 40.167,265.000 40.092,265.000 40.000 C 265.000 39.908,265.333 39.833,265.740 39.833 C 266.147 39.833,266.527 39.758,266.583 39.667 C 266.645 39.568,267.693 39.500,269.167 39.500 C 270.640 39.500,271.689 39.568,271.750 39.667 " stroke="none" fill="#444444" fill-rule="evenodd"></path><path id="path1" d="" stroke="none" fill="#484444" fill-rule="evenodd"></path><path id="path2" d="" stroke="none" fill="#484444" fill-rule="evenodd"></path><path id="path3" d="" stroke="none" fill="#484444" fill-rule="evenodd"></path><path id="path4" d="" stroke="none" fill="#484444" fill-rule="evenodd"></path></g></svg>